<?xml version="1.0" encoding="UTF-8"?>
<svg version="1.1" xmlns="http://www.w3.org/2000/svg" width="1024" height="1024">
<path d="M0 0 C337.92 0 675.84 0 1024 0 C1024 337.92 1024 675.84 1024 1024 C686.08 1024 348.16 1024 0 1024 C0 686.08 0 348.16 0 0 Z " fill="#FBFBFB" transform="translate(0,0)"/>
<path d="M0 0 C5.00970426 0.01140931 10.0191964 0.00460904 15.02889347 -0.0068779 C35.40102614 -0.04659023 55.61212586 0.00782012 75.88427734 2.26074219 C77.33178626 2.40900818 78.77937276 2.55651938 80.22705078 2.703125 C98.70173317 4.68073577 116.83238047 7.86147337 134.88427734 12.26074219 C135.94308105 12.51694336 137.00188477 12.77314453 138.09277344 13.03710938 C184.1763681 24.4346656 228.96897662 47.87348848 254.68603516 89.16552734 C270.12517675 114.82368249 278.37524953 143.11385128 278.13427734 173.07324219 C278.1308432 173.77550934 278.12740906 174.47777649 278.12387085 175.20132446 C278.06401574 185.65784936 277.87410296 195.96247904 275.88427734 206.26074219 C275.65828857 207.45038574 275.65828857 207.45038574 275.42773438 208.6640625 C272.759289 222.17290698 268.50297325 234.70584469 262.88427734 247.26074219 C262.57119629 247.96537598 262.25811523 248.67000977 261.93554688 249.39599609 C255.02593009 264.68201439 245.39812538 278.2655951 235.07958984 291.42089844 C227.75036524 300.41219401 227.75036524 300.41219401 224.88427734 311.26074219 C226.09857422 310.97199219 227.31287109 310.68324219 228.56396484 310.38574219 C255.35546536 304.42588656 283.58943272 304.58901262 307.44677734 319.53808594 C311.9611634 322.72854146 315.94513158 326.39321725 319.88427734 330.26074219 C320.55072266 330.90269531 321.21716797 331.54464844 321.90380859 332.20605469 C338.4502432 349.39277903 347.67458472 373.97221421 354.88427734 396.26074219 C355.13773926 397.01806641 355.39120117 397.77539062 355.65234375 398.55566406 C363.45985701 421.9528383 368.20736684 446.77471648 370.88427734 471.26074219 C371.01447266 472.31519531 371.14466797 473.36964844 371.27880859 474.45605469 C373.95693976 499.52336239 372.06134394 524.3758274 355.85302734 544.82324219 C336.22634027 567.4906836 308.7280135 575.6753427 279.88427734 579.26074219 C301.87727198 593.9836273 326.33464082 597.64073358 352.28881836 592.77368164 C370.85119954 588.8693508 387.80155318 582.40210443 404.88427734 574.26074219 C405.73973145 573.85758789 406.59518555 573.45443359 407.4765625 573.0390625 C423.53697974 565.4272345 438.70104945 556.45963212 453.88427734 547.26074219 C520.117293 507.28817237 520.117293 507.28817237 536.88427734 511.26074219 C538.77490234 512.73339844 538.77490234 512.73339844 539.88427734 515.26074219 C540.35257375 522.47659513 537.29058527 528.53570668 534.13427734 534.82324219 C533.64403076 535.8206543 533.15378418 536.81806641 532.64868164 537.84570312 C514.13571429 575.14581759 492.88499957 612.03784766 465.38232422 643.49169922 C464.23427767 644.84742693 463.11594641 646.22836646 462.01123047 647.61962891 C456.31879181 654.76884498 450.18227388 661.27226024 443.70117188 667.70458984 C442.01114492 669.38388646 440.3320997 671.07363188 438.65380859 672.76464844 C432.03745128 679.38905801 425.21976158 685.43327589 417.88427734 691.26074219 C416.78234328 692.19539687 415.68601956 693.13676961 414.59912109 694.08886719 C380.65875288 723.68525016 340.12628114 743.38793768 296.88427734 755.26074219 C297.49271484 755.98390625 298.10115234 756.70707031 298.72802734 757.45214844 C306.7419476 767.89056994 308.01667976 781.62699384 309.88427734 794.26074219 C310.00432129 795.06431152 310.12436523 795.86788086 310.24804688 796.69580078 C311.67631696 806.70220564 312.07422691 816.65797139 312.13427734 826.76074219 C312.14362305 827.83485352 312.15296875 828.90896484 312.16259766 830.015625 C312.10559078 844.16648547 309.61957424 854.36751905 299.82177734 864.88574219 C282.0242573 881.70439863 256.87273279 887.39000177 233.07177734 887.51074219 C232.03601563 887.53136719 231.00025391 887.55199219 229.93310547 887.57324219 C228.94117188 887.57839844 227.94923828 887.58355469 226.92724609 887.58886719 C226.03030029 887.59821289 225.13335449 887.60755859 224.20922852 887.6171875 C221.39005254 887.18497109 220.81557614 886.25522945 218.88427734 884.26074219 C216.83251819 883.82282445 216.83251819 883.82282445 214.56005859 883.88964844 C213.703396 883.87506592 212.8467334 883.8604834 211.96411133 883.84545898 C211.05089111 883.83812744 210.1376709 883.8307959 209.19677734 883.82324219 C186.86489472 883.20136116 186.86489472 883.20136116 179.48974609 877.36621094 C177.41949286 874.65120731 177.21136648 872.38691407 177.37255859 869.01855469 C179.17726191 859.29244367 184.18587878 850.43146373 190.88427734 843.26074219 C191.75826172 842.30748047 191.75826172 842.30748047 192.64990234 841.33496094 C198.35482278 835.73790664 206.76510169 831.26074219 214.88427734 831.26074219 C216.9743646 822.00464146 217.91914829 812.68615146 218.88427734 803.26074219 C218.17174805 803.27814453 217.45921875 803.29554688 216.72509766 803.31347656 C185.04860028 803.74472871 149.89532231 794.88771176 125.88427734 773.26074219 C125.2332605 772.50398193 125.2332605 772.50398193 124.5690918 771.73193359 C119.80929589 766.72940528 115.27665104 766.49654839 108.56567383 766.22607422 C106.58869507 766.18135986 106.58869507 766.18135986 104.57177734 766.13574219 C101.78435367 766.02390966 98.99846445 765.88656822 96.21240234 765.74511719 C95.51231552 765.71124908 94.8122287 765.67738098 94.09092712 765.64248657 C79.38846139 764.87311641 64.38829929 762.65261801 50.42333984 757.89746094 C47.59194404 757.18743399 46.48914534 756.94780469 43.88427734 758.26074219 C42.16608668 760.2110393 40.72017417 762.06785251 39.25927734 764.19824219 C38.82832764 764.81650879 38.39737793 765.43477539 37.95336914 766.07177734 C23.90919267 786.66311205 13.13279935 808.81949262 12.38427734 834.01074219 C12.03030596 845.51948323 10.75361738 855.8561475 2.26708984 864.38964844 C-5.99427399 870.87685053 -15.93054104 872.30066359 -26.11572266 873.26074219 C-26.90398437 873.34686768 -27.69224609 873.43299316 -28.50439453 873.52172852 C-37.61753564 874.42452116 -46.71816368 874.44685914 -55.86669922 874.44604492 C-58.5826829 874.44821578 -61.29824874 874.46638845 -64.01416016 874.48535156 C-80.70887818 874.53993698 -97.07096919 872.96252265 -113.55322266 870.32324219 C-115.14360352 870.08831055 -115.14360352 870.08831055 -116.76611328 869.84863281 C-117.78769531 869.68685547 -118.80927734 869.52507813 -119.86181641 869.35839844 C-120.75570068 869.21926025 -121.64958496 869.08012207 -122.57055664 868.93676758 C-126.46580514 867.90214474 -129.28064389 866.09582096 -132.11572266 863.26074219 C-134.36308112 862.49243269 -134.36308112 862.49243269 -136.99072266 861.89355469 C-138.46992188 861.52423828 -138.46992188 861.52423828 -139.97900391 861.14746094 C-142.03884844 860.64724963 -144.09874271 860.1472431 -146.15869141 859.64746094 C-163.67491135 855.27407097 -163.67491135 855.27407097 -168.24072266 850.44824219 C-170.56019406 846.50514081 -170.88069875 844.77410117 -170.11572266 840.26074219 C-167.16130326 832.68385799 -161.65181658 827.05018279 -156.11572266 821.26074219 C-155.49955078 820.55820312 -154.88337891 819.85566406 -154.24853516 819.13183594 C-143.63672306 807.49527804 -127.07943066 800.48180371 -111.42889404 799.68785095 C-107.69846654 799.58169005 -103.97243637 799.56150724 -100.24072266 799.57324219 C-97.94340529 799.56432291 -95.64651551 799.54843563 -93.34933472 799.52177429 C-91.30297737 799.50025329 -89.25643135 799.49961585 -87.20996094 799.50024414 C-84.01147416 799.5901133 -84.01147416 799.5901133 -82.11572266 797.26074219 C-81.38775411 789.46719653 -82.11193636 781.70426262 -83.11181641 773.97558594 C-84.19007726 764.92634663 -84.45511543 755.96388644 -84.43139648 746.85668945 C-84.42822802 744.32752594 -84.45186084 741.79952911 -84.47705078 739.27050781 C-84.53891689 723.65663601 -82.57127017 708.48965201 -78.05322266 693.51074219 C-77.75649658 692.51469971 -77.45977051 691.51865723 -77.15405273 690.49243164 C-71.49236973 672.19740767 -63.41531789 652.41852073 -52.29736328 636.68798828 C-47.46417537 629.78255254 -46.13371091 624.74080606 -45.99072266 616.38574219 C-44.94789323 594.78137636 -42.93195852 565.89321391 -33.11572266 546.26074219 C-33.67517578 546.40511719 -34.23462891 546.54949219 -34.81103516 546.69824219 C-53.6857434 551.06794956 -71.8013088 546.79010523 -88.42822266 537.38574219 C-98.35100159 531.13042235 -105.64695342 521.74048455 -108.63916016 510.27636719 C-111.97446517 489.17099445 -104.25355039 473.25213017 -92.11181641 456.49511719 C-85.99899269 448.99127513 -76.7768057 442.78617635 -67.11572266 441.26074219 C-56.15308612 440.4797628 -46.73529459 441.43907038 -38.00244141 448.50683594 C-34.75759896 451.52326297 -31.94744584 454.86267437 -29.11572266 458.26074219 C-28.45572266 458.92074219 -27.79572266 459.58074219 -27.11572266 460.26074219 C-25.20477892 458.63019211 -23.3134868 456.98307029 -21.42822266 455.32324219 C-20.89777344 454.87400391 -20.36732422 454.42476562 -19.82080078 453.96191406 C-10.59977916 445.75916477 -8.76554624 435.61577175 -6.86572266 423.94824219 C-6.60648852 422.42821529 -6.34721093 420.9081958 -6.08789062 419.38818359 C-4.25346934 408.36660875 -3.14320435 397.44579111 -3.11572266 386.26074219 C-4.23369232 386.42274612 -5.35166199 386.58475006 -6.50350952 386.75166321 C-11.31531775 387.34952403 -16.0674099 387.40850632 -20.91113281 387.40600586 C-22.33289825 387.41104378 -22.33289825 387.41104378 -23.78338623 387.41618347 C-26.90719941 387.4256512 -30.03095853 387.42763593 -33.15478516 387.42871094 C-35.35834779 387.43193148 -37.56191021 387.43529613 -39.76547241 387.438797 C-44.39378349 387.44478152 -49.02207595 387.4466381 -53.65039062 387.44604492 C-58.33793044 387.44596431 -63.02537118 387.45279982 -67.71289062 387.46655273 C-118.41297848 387.61317208 -118.41297848 387.61317208 -143.11572266 385.26074219 C-144.85090401 385.09643204 -144.85090401 385.09643204 -146.62113953 384.92880249 C-180.21382328 381.68132469 -217.67831551 376.0879992 -244.11572266 353.26074219 C-244.93427734 352.64328125 -245.75283203 352.02582031 -246.59619141 351.38964844 C-256.0749166 343.38049304 -260.60220606 332.23951433 -263.97900391 320.69433594 C-265.14136428 317.18328863 -266.57437606 313.96619895 -268.17822266 310.63574219 C-271.55770584 303.56101602 -273.97005637 296.62115752 -274.42822266 288.76074219 C-274.65509766 287.60574219 -274.88197266 286.45074219 -275.11572266 285.26074219 C-277.91539625 283.48578944 -277.91539625 283.48578944 -281.11572266 282.26074219 C-290.96532589 271.34631698 -287.43943662 251.97999261 -286.80322266 238.13574219 C-283.68056173 181.26796236 -265.02242874 123.61300119 -227.11572266 80.26074219 C-226.42478516 79.46023437 -225.73384766 78.65972656 -225.02197266 77.83496094 C-178.97346275 25.52986001 -115.60814782 5.27733834 -47.5378418 0.67749023 C-31.7217442 -0.27341055 -15.83733452 -0.03643386 0 0 Z " fill="#F33736" transform="translate(413.11572265625,70.7392578125)"/>
<path d="M0 0 C5.00970426 0.01140931 10.0191964 0.00460904 15.02889347 -0.0068779 C35.40102614 -0.04659023 55.61212586 0.00782012 75.88427734 2.26074219 C77.33178626 2.40900818 78.77937276 2.55651938 80.22705078 2.703125 C98.70173317 4.68073577 116.83238047 7.86147337 134.88427734 12.26074219 C135.94308105 12.51694336 137.00188477 12.77314453 138.09277344 13.03710938 C184.1763681 24.4346656 228.96897662 47.87348848 254.68603516 89.16552734 C270.12517675 114.82368249 278.37524953 143.11385128 278.13427734 173.07324219 C278.1308432 173.77550934 278.12740906 174.47777649 278.12387085 175.20132446 C278.06401574 185.65784936 277.87410296 195.96247904 275.88427734 206.26074219 C275.65828857 207.45038574 275.65828857 207.45038574 275.42773438 208.6640625 C272.759289 222.17290698 268.50297325 234.70584469 262.88427734 247.26074219 C262.57119629 247.96537598 262.25811523 248.67000977 261.93554688 249.39599609 C255.02593009 264.68201439 245.39812538 278.2655951 235.07958984 291.42089844 C227.75036524 300.41219401 227.75036524 300.41219401 224.88427734 311.26074219 C226.09857422 310.97199219 227.31287109 310.68324219 228.56396484 310.38574219 C255.35546536 304.42588656 283.58943272 304.58901262 307.44677734 319.53808594 C311.9611634 322.72854146 315.94513158 326.39321725 319.88427734 330.26074219 C320.55072266 330.90269531 321.21716797 331.54464844 321.90380859 332.20605469 C338.4502432 349.39277903 347.67458472 373.97221421 354.88427734 396.26074219 C355.13773926 397.01806641 355.39120117 397.77539062 355.65234375 398.55566406 C363.45985701 421.9528383 368.20736684 446.77471648 370.88427734 471.26074219 C371.01447266 472.31519531 371.14466797 473.36964844 371.27880859 474.45605469 C373.95693976 499.52336239 372.06134394 524.3758274 355.85302734 544.82324219 C336.22634027 567.4906836 308.7280135 575.6753427 279.88427734 579.26074219 C301.87727198 593.9836273 326.33464082 597.64073358 352.28881836 592.77368164 C370.85119954 588.8693508 387.80155318 582.40210443 404.88427734 574.26074219 C405.73973145 573.85758789 406.59518555 573.45443359 407.4765625 573.0390625 C423.53697974 565.4272345 438.70104945 556.45963212 453.88427734 547.26074219 C520.117293 507.28817237 520.117293 507.28817237 536.88427734 511.26074219 C538.77490234 512.73339844 538.77490234 512.73339844 539.88427734 515.26074219 C540.35257375 522.47659513 537.29058527 528.53570668 534.13427734 534.82324219 C533.64403076 535.8206543 533.15378418 536.81806641 532.64868164 537.84570312 C514.13571429 575.14581759 492.88499957 612.03784766 465.38232422 643.49169922 C464.23427767 644.84742693 463.11594641 646.22836646 462.01123047 647.61962891 C456.31879181 654.76884498 450.18227388 661.27226024 443.70117188 667.70458984 C442.01114492 669.38388646 440.3320997 671.07363188 438.65380859 672.76464844 C432.03745128 679.38905801 425.21976158 685.43327589 417.88427734 691.26074219 C416.78234328 692.19539687 415.68601956 693.13676961 414.59912109 694.08886719 C380.65875288 723.68525016 340.12628114 743.38793768 296.88427734 755.26074219 C297.49271484 755.98390625 298.10115234 756.70707031 298.72802734 757.45214844 C306.7419476 767.89056994 308.01667976 781.62699384 309.88427734 794.26074219 C310.00432129 795.06431152 310.12436523 795.86788086 310.24804688 796.69580078 C311.67631696 806.70220564 312.07422691 816.65797139 312.13427734 826.76074219 C312.14362305 827.83485352 312.15296875 828.90896484 312.16259766 830.015625 C312.10559078 844.16648547 309.61957424 854.36751905 299.82177734 864.88574219 C282.0242573 881.70439863 256.87273279 887.39000177 233.07177734 887.51074219 C232.03601563 887.53136719 231.00025391 887.55199219 229.93310547 887.57324219 C228.94117188 887.57839844 227.94923828 887.58355469 226.92724609 887.58886719 C226.03030029 887.59821289 225.13335449 887.60755859 224.20922852 887.6171875 C221.39005254 887.18497109 220.81557614 886.25522945 218.88427734 884.26074219 C216.83251819 883.82282445 216.83251819 883.82282445 214.56005859 883.88964844 C213.703396 883.87506592 212.8467334 883.8604834 211.96411133 883.84545898 C211.05089111 883.83812744 210.1376709 883.8307959 209.19677734 883.82324219 C186.86489472 883.20136116 186.86489472 883.20136116 179.48974609 877.36621094 C177.41949286 874.65120731 177.21136648 872.38691407 177.37255859 869.01855469 C179.17726191 859.29244367 184.18587878 850.43146373 190.88427734 843.26074219 C191.75826172 842.30748047 191.75826172 842.30748047 192.64990234 841.33496094 C198.35482278 835.73790664 206.76510169 831.26074219 214.88427734 831.26074219 C216.9743646 822.00464146 217.91914829 812.68615146 218.88427734 803.26074219 C218.17174805 803.27814453 217.45921875 803.29554688 216.72509766 803.31347656 C185.04860028 803.74472871 149.89532231 794.88771176 125.88427734 773.26074219 C125.2332605 772.50398193 125.2332605 772.50398193 124.5690918 771.73193359 C119.80929589 766.72940528 115.27665104 766.49654839 108.56567383 766.22607422 C106.58869507 766.18135986 106.58869507 766.18135986 104.57177734 766.13574219 C101.78435367 766.02390966 98.99846445 765.88656822 96.21240234 765.74511719 C95.51231552 765.71124908 94.8122287 765.67738098 94.09092712 765.64248657 C79.38846139 764.87311641 64.38829929 762.65261801 50.42333984 757.89746094 C47.59194404 757.18743399 46.48914534 756.94780469 43.88427734 758.26074219 C42.16608668 760.2110393 40.72017417 762.06785251 39.25927734 764.19824219 C38.82832764 764.81650879 38.39737793 765.43477539 37.95336914 766.07177734 C23.90919267 786.66311205 13.13279935 808.81949262 12.38427734 834.01074219 C12.03030596 845.51948323 10.75361738 855.8561475 2.26708984 864.38964844 C-5.99427399 870.87685053 -15.93054104 872.30066359 -26.11572266 873.26074219 C-26.90398437 873.34686768 -27.69224609 873.43299316 -28.50439453 873.52172852 C-37.61753564 874.42452116 -46.71816368 874.44685914 -55.86669922 874.44604492 C-58.5826829 874.44821578 -61.29824874 874.46638845 -64.01416016 874.48535156 C-80.70887818 874.53993698 -97.07096919 872.96252265 -113.55322266 870.32324219 C-115.14360352 870.08831055 -115.14360352 870.08831055 -116.76611328 869.84863281 C-117.78769531 869.68685547 -118.80927734 869.52507813 -119.86181641 869.35839844 C-120.75570068 869.21926025 -121.64958496 869.08012207 -122.57055664 868.93676758 C-126.46580514 867.90214474 -129.28064389 866.09582096 -132.11572266 863.26074219 C-134.36308112 862.49243269 -134.36308112 862.49243269 -136.99072266 861.89355469 C-138.46992188 861.52423828 -138.46992188 861.52423828 -139.97900391 861.14746094 C-142.03884844 860.64724963 -144.09874271 860.1472431 -146.15869141 859.64746094 C-163.67491135 855.27407097 -163.67491135 855.27407097 -168.24072266 850.44824219 C-170.56019406 846.50514081 -170.88069875 844.77410117 -170.11572266 840.26074219 C-167.16130326 832.68385799 -161.65181658 827.05018279 -156.11572266 821.26074219 C-155.49955078 820.55820312 -154.88337891 819.85566406 -154.24853516 819.13183594 C-143.63672306 807.49527804 -127.07943066 800.48180371 -111.42889404 799.68785095 C-107.69846654 799.58169005 -103.97243637 799.56150724 -100.24072266 799.57324219 C-97.94340529 799.56432291 -95.64651551 799.54843563 -93.34933472 799.52177429 C-91.30297737 799.50025329 -89.25643135 799.49961585 -87.20996094 799.50024414 C-84.01147416 799.5901133 -84.01147416 799.5901133 -82.11572266 797.26074219 C-81.38775411 789.46719653 -82.11193636 781.70426262 -83.11181641 773.97558594 C-84.19007726 764.92634663 -84.45511543 755.96388644 -84.43139648 746.85668945 C-84.42822802 744.32752594 -84.45186084 741.79952911 -84.47705078 739.27050781 C-84.53891689 723.65663601 -82.57127017 708.48965201 -78.05322266 693.51074219 C-77.75649658 692.51469971 -77.45977051 691.51865723 -77.15405273 690.49243164 C-71.49236973 672.19740767 -63.41531789 652.41852073 -52.29736328 636.68798828 C-47.46417537 629.78255254 -46.13371091 624.74080606 -45.99072266 616.38574219 C-44.94789323 594.78137636 -42.93195852 565.89321391 -33.11572266 546.26074219 C-33.67517578 546.40511719 -34.23462891 546.54949219 -34.81103516 546.69824219 C-53.6857434 551.06794956 -71.8013088 546.79010523 -88.42822266 537.38574219 C-98.35100159 531.13042235 -105.64695342 521.74048455 -108.63916016 510.27636719 C-111.97446517 489.17099445 -104.25355039 473.25213017 -92.11181641 456.49511719 C-85.99899269 448.99127513 -76.7768057 442.78617635 -67.11572266 441.26074219 C-56.15308612 440.4797628 -46.73529459 441.43907038 -38.00244141 448.50683594 C-34.75759896 451.52326297 -31.94744584 454.86267437 -29.11572266 458.26074219 C-28.45572266 458.92074219 -27.79572266 459.58074219 -27.11572266 460.26074219 C-25.20477892 458.63019211 -23.3134868 456.98307029 -21.42822266 455.32324219 C-20.89777344 454.87400391 -20.36732422 454.42476562 -19.82080078 453.96191406 C-10.59977916 445.75916477 -8.76554624 435.61577175 -6.86572266 423.94824219 C-6.60648852 422.42821529 -6.34721093 420.9081958 -6.08789062 419.38818359 C-4.25346934 408.36660875 -3.14320435 397.44579111 -3.11572266 386.26074219 C-4.23369232 386.42274612 -5.35166199 386.58475006 -6.50350952 386.75166321 C-11.31531775 387.34952403 -16.0674099 387.40850632 -20.91113281 387.40600586 C-22.33289825 387.41104378 -22.33289825 387.41104378 -23.78338623 387.41618347 C-26.90719941 387.4256512 -30.03095853 387.42763593 -33.15478516 387.42871094 C-35.35834779 387.43193148 -37.56191021 387.43529613 -39.76547241 387.438797 C-44.39378349 387.44478152 -49.02207595 387.4466381 -53.65039062 387.44604492 C-58.33793044 387.44596431 -63.02537118 387.45279982 -67.71289062 387.46655273 C-118.41297848 387.61317208 -118.41297848 387.61317208 -143.11572266 385.26074219 C-144.85090401 385.09643204 -144.85090401 385.09643204 -146.62113953 384.92880249 C-180.21382328 381.68132469 -217.67831551 376.0879992 -244.11572266 353.26074219 C-244.93427734 352.64328125 -245.75283203 352.02582031 -246.59619141 351.38964844 C-256.0749166 343.38049304 -260.60220606 332.23951433 -263.97900391 320.69433594 C-265.14136428 317.18328863 -266.57437606 313.96619895 -268.17822266 310.63574219 C-271.55770584 303.56101602 -273.97005637 296.62115752 -274.42822266 288.76074219 C-274.65509766 287.60574219 -274.88197266 286.45074219 -275.11572266 285.26074219 C-277.91539625 283.48578944 -277.91539625 283.48578944 -281.11572266 282.26074219 C-290.96532589 271.34631698 -287.43943662 251.97999261 -286.80322266 238.13574219 C-283.68056173 181.26796236 -265.02242874 123.61300119 -227.11572266 80.26074219 C-226.42478516 79.46023437 -225.73384766 78.65972656 -225.02197266 77.83496094 C-178.97346275 25.52986001 -115.60814782 5.27733834 -47.5378418 0.67749023 C-31.7217442 -0.27341055 -15.83733452 -0.03643386 0 0 Z M-213.79931641 81.69042969 C-219.01690787 87.2078481 -223.5999173 93.1663803 -228.11572266 99.26074219 C-228.9659601 100.38055129 -229.81622036 101.50034308 -230.66650391 102.62011719 C-261.91192144 144.40367941 -276.4962207 198.38269121 -276.48632812 250.06152344 C-276.49080373 252.68323161 -276.52760333 255.30338092 -276.56494141 257.92480469 C-276.57079398 259.60709071 -276.57477378 261.28938454 -276.57666016 262.97167969 C-276.59103119 263.74764496 -276.60540222 264.52361023 -276.62020874 265.3230896 C-276.59021034 268.84498046 -276.42588613 270.85225317 -274.26586914 273.69702148 C-240.81390774 298.02537538 -171.89682025 292.48624123 -132.30322266 292.44824219 C-130.53150696 292.44733582 -130.53150696 292.44733582 -128.72399902 292.44641113 C-86.38625174 292.38845488 -44.27417904 290.07570154 -2.11572266 286.26074219 C-0.82175568 286.14439423 -0.82175568 286.14439423 0.49835205 286.0256958 C41.47654672 282.31319984 82.17672054 275.98783891 122.04330444 265.70379639 C126.10785565 264.65710644 129.68071598 264.03065315 133.88427734 264.13574219 C134.83302734 264.15378906 135.78177734 264.17183594 136.75927734 264.19042969 C137.46052734 264.21363281 138.16177734 264.23683594 138.88427734 264.26074219 C138.88427734 265.91074219 138.88427734 267.56074219 138.88427734 269.26074219 C137.3786255 269.75461347 135.87224498 270.24632276 134.36328125 270.72998047 C132.97372226 271.17632769 131.58673864 271.63075509 130.20214844 272.09228516 C125.83805966 273.49935836 121.58164778 274.52997792 117.05224609 275.26074219 C106.6462447 276.79218658 106.6462447 276.79218658 97.99658203 282.21044922 C94.84568579 286.80838714 92.77083829 291.82966251 90.78271484 297.015625 C85.65827833 309.82114625 75.8207483 319.50901566 63.45068359 325.20214844 C55.93362736 328.30279111 45.21326641 328.75560735 37.38427734 326.19824219 C30.78825605 323.09767342 25.53945054 318.06462349 22.88427734 311.26074219 C22.22427734 311.26074219 21.56427734 311.26074219 20.88427734 311.26074219 C19.53382111 313.24446915 19.53382111 313.24446915 18.19677734 315.76074219 C10.87961037 328.24400536 1.34273815 335.10966547 -12.61572266 338.94824219 C-23.24289004 340.27663811 -32.59171315 337.8135745 -41.11572266 331.26074219 C-46.21786922 326.91328814 -49.83427042 322.08267357 -53.11572266 316.26074219 C-55.80614705 318.68534621 -57.42105112 321.3319448 -59.24072266 324.44824219 C-65.6256992 334.58121334 -74.4698105 341.08275949 -85.92822266 344.57324219 C-96.79682746 346.83023068 -107.08561943 345.60949194 -116.55322266 339.75292969 C-124.98312115 333.62986152 -130.43222329 325.9385076 -134.11572266 316.26074219 C-134.77572266 316.26074219 -135.43572266 316.26074219 -136.11572266 316.26074219 C-136.38384766 316.87820313 -136.65197266 317.49566406 -136.92822266 318.13183594 C-141.79506488 328.64997852 -148.46191561 336.35966957 -159.11572266 341.26074219 C-168.76826273 344.56531767 -180.52384835 345.08319257 -189.88134766 340.57714844 C-200.72406832 334.18904203 -206.88689458 325.55501083 -212.11572266 314.26074219 C-212.77572266 314.26074219 -213.43572266 314.26074219 -214.11572266 314.26074219 C-215.67462648 316.17381871 -215.67462648 316.17381871 -217.17822266 318.57324219 C-217.70544922 319.37375 -218.23267578 320.17425781 -218.77587891 320.99902344 C-220.24579814 323.29854512 -220.24579814 323.29854512 -221.11572266 326.26074219 C-222.86572266 327.26074219 -222.86572266 327.26074219 -225.11572266 328.26074219 C-225.94072266 328.77636719 -226.76572266 329.29199219 -227.61572266 329.82324219 C-231.62812621 332.13037423 -235.02120996 332.39836448 -239.61572266 332.38574219 C-240.55416016 332.38832031 -241.49259766 332.39089844 -242.45947266 332.39355469 C-244.83714896 332.27467087 -246.84255361 331.9362594 -249.11572266 331.26074219 C-237.94691815 351.07636308 -217.42566645 359.92700492 -196.43212891 366.04248047 C-124.10874757 385.67652617 -38.97392796 382.36750904 34.80786133 374.45263672 C37.71326319 374.18413044 40.59327674 374.1643352 43.50927734 374.19824219 C44.53279297 374.20726562 45.55630859 374.21628906 46.61083984 374.22558594 C47.36107422 374.2371875 48.11130859 374.24878906 48.88427734 374.26074219 C49.50927734 376.63574219 49.50927734 376.63574219 49.88427734 379.26074219 C42.29045449 386.85456504 18.15615471 384.54011195 7.88427734 385.26074219 C7.87082275 385.84823242 7.85736816 386.43572266 7.84350586 387.04101562 C7.10799834 410.65773745 1.97051138 433.27336426 -3.11572266 456.26074219 C-3.31117676 457.14683167 -3.50663086 458.03292114 -3.70800781 458.94586182 C-5.92504294 468.99045979 -8.18858717 479.02402914 -10.47886658 489.05215454 C-11.74613513 494.61031789 -12.98797626 500.17367489 -14.21337891 505.74121094 C-14.38264389 506.50980942 -14.55190887 507.2784079 -14.7263031 508.07029724 C-15.06415301 509.60469004 -15.40197772 511.1390884 -15.73977661 512.67349243 C-18.27293334 524.17632333 -20.91290392 535.63830399 -23.74072266 547.07324219 C-36.28824487 597.99660466 -45.25225393 649.80608246 -16.80322266 696.94824219 C2.93262229 726.75339578 34.14347516 744.78351599 68.69677734 752.07324219 C71.08821808 752.49480192 73.48432267 752.8907166 75.88427734 753.26074219 C77.16431641 753.46441406 78.44435547 753.66808594 79.76318359 753.87792969 C89.50486355 755.31597016 99.05868678 755.47962911 108.88427734 755.26074219 C108.37638672 754.4009375 107.86849609 753.54113281 107.34521484 752.65527344 C101.11097811 742.00125335 95.6366402 731.37669862 92.07177734 719.51074219 C91.86464111 718.82584717 91.65750488 718.14095215 91.4440918 717.43530273 C86.22749381 699.1211528 87.54325563 677.6246313 91.88427734 659.26074219 C92.05056641 658.55014648 92.21685547 657.83955078 92.38818359 657.10742188 C96.58604464 639.85732252 104.47023754 622.35536824 117.88427734 610.26074219 C120.63427734 609.51074219 120.63427734 609.51074219 122.88427734 609.26074219 C123.39218321 614.61756192 122.13910352 616.87825508 118.88427734 621.07324219 C102.22099013 643.74537166 95.26674265 674.41995318 98.31787109 702.20996094 C102.33233704 727.2692049 114.51845244 751.6195539 134.88427734 767.26074219 C159.20675631 784.68889317 185.60240703 790.99908824 215.20922852 792.52709961 C216.429729 792.59517822 217.65022949 792.66325684 218.90771484 792.73339844 C220.01034668 792.78761963 221.11297852 792.84184082 222.24902344 792.89770508 C224.88427734 793.26074219 224.88427734 793.26074219 226.88427734 795.26074219 C228.27199029 801.42604564 228.06696562 808.03432086 228.07177734 814.32324219 C228.08402344 815.16951172 228.09626953 816.01578125 228.10888672 816.88769531 C228.12152813 822.35299727 227.41929309 827.01256583 225.88427734 832.26074219 C227.12983827 833.08003105 228.38094369 833.89089405 229.63427734 834.69824219 C230.33037109 835.15070312 231.02646484 835.60316406 231.74365234 836.06933594 C233.91443128 837.27752494 235.41516339 838.00157946 237.88427734 838.26074219 C239.55444082 837.60288493 241.22061619 836.93487406 242.88427734 836.26074219 C251.27996777 835.26285441 258.53282422 835.33564121 265.61474609 840.37402344 C273.67621341 847.07572518 278.99058363 853.9611506 283.88427734 863.26074219 C291.90420844 858.55571594 297.88857462 853.28037866 300.88427734 844.26074219 C301.08446282 841.71598436 301.18791696 839.28451965 301.18505859 836.74121094 C301.19061264 836.01389771 301.19616669 835.28658447 301.20188904 834.53723145 C301.21369876 832.17403186 301.20738762 829.81144195 301.19677734 827.44824219 C301.19454163 826.23897568 301.19454163 826.23897568 301.19226074 825.00527954 C301.57355743 789.07031088 301.57355743 789.07031088 285.88427734 758.26074219 C283.62911932 757.75925894 283.62911932 757.75925894 281.00927734 757.44824219 C268.02729211 755.25912311 253.44724328 748.35506684 245.00927734 737.94824219 C243.2857116 733.83083513 243.08575673 729.57716333 244.54199219 725.3527832 C245.46332907 723.4230801 246.46280232 721.56296034 247.50927734 719.69824219 C248.24947847 718.2969768 248.98506687 716.89326626 249.71630859 715.48730469 C250.08320801 714.78379883 250.45010742 714.08029297 250.828125 713.35546875 C252.44134482 710.15587881 253.85013947 706.89252495 255.19677734 703.57324219 C255.64666016 702.47625 256.09654297 701.37925781 256.56005859 700.24902344 C260.76114657 688.23840444 261.27068942 677.00722565 261.07177734 664.44824219 C261.05668911 662.77312414 261.0430081 661.0979928 261.03076172 659.42285156 C260.99811617 655.36847943 260.94656826 651.31476274 260.88427734 647.26074219 C262.53427734 646.93074219 264.18427734 646.60074219 265.88427734 646.26074219 C274.26789841 664.1215001 270.07507172 687.85535537 263.82080078 705.89257812 C261.67748869 711.31231934 258.90600365 716.47216311 256.09912109 721.57373047 C255.66986328 722.37278809 255.24060547 723.1718457 254.79833984 723.99511719 C254.20980225 725.05037598 254.20980225 725.05037598 253.609375 726.12695312 C252.67917895 728.86429774 253.06780272 730.52051912 253.88427734 733.26074219 C259.58085979 740.76400774 270.62443436 745.17680171 279.58154297 747.00195312 C283.33687194 747.42398967 286.57166464 746.70901408 290.19677734 745.76074219 C291.34847412 745.4798877 291.34847412 745.4798877 292.5234375 745.19335938 C294.98566762 744.57817453 297.43511169 743.92593577 299.88427734 743.26074219 C300.69396973 743.04353516 301.50366211 742.82632813 302.33789062 742.60253906 C321.02227533 737.5071354 338.81113601 730.38758598 355.88427734 721.26074219 C356.99464355 720.6685791 356.99464355 720.6685791 358.12744141 720.06445312 C381.5193176 707.50960224 402.67014948 691.86902994 422.11474609 673.81152344 C424.33655052 671.76520709 426.58461472 669.78009796 428.88427734 667.82324219 C437.16976099 660.62749856 444.81484417 652.64328822 451.88427734 644.26074219 C452.65642578 643.37773438 453.42857422 642.49472656 454.22412109 641.58496094 C480.1284211 611.79696509 499.87346542 577.95852086 518.30957031 543.22216797 C519.78499222 540.4474598 521.27172808 537.67920046 522.76318359 534.91308594 C523.59544646 533.36242898 524.42749517 531.81165705 525.25927734 530.26074219 C525.63479736 529.5666626 526.01031738 528.87258301 526.3972168 528.1574707 C528.26801447 524.89135231 528.26801447 524.89135231 528.88427734 521.26074219 C509.57256822 525.11422543 492.27924529 536.2011131 475.65155029 546.20043945 C472.43390397 548.13091612 469.20770043 550.04700101 465.98193359 551.96386719 C464.96524849 552.56812279 464.96524849 552.56812279 463.92802429 553.18458557 C457.17116687 557.19947203 450.41247837 561.21126021 443.64916992 565.215271 C442.03733315 566.17007637 440.42656882 567.12669157 438.81591797 568.08349609 C400.99815302 590.47841104 351.81079936 614.61555432 306.50927734 603.57324219 C291.47536484 599.5592987 277.83993224 592.58159663 266.59130859 581.72949219 C259.34606464 577.79845074 249.51892557 580.79301424 241.82177734 582.19824219 C229.41328552 584.40818755 217.6221655 585.46732425 205.00927734 585.44824219 C204.27473328 585.44763794 203.54018921 585.44703369 202.78338623 585.44641113 C191.38469138 585.42095861 180.15057713 585.11760003 168.88427734 583.26074219 C168.1155127 583.13715332 167.34674805 583.01356445 166.5546875 582.88623047 C149.36708053 580.0024038 132.42527633 575.03814125 119.40380859 562.95996094 C112.72339755 556.93081597 107.32029475 554.93603686 98.75927734 553.14355469 C89.36337338 551.0029556 79.06126291 546.28528245 73.38427734 538.13574219 C70.7069445 532.86363743 70.94863758 525.65543519 72.49365234 520.04980469 C73.1399221 518.06285336 73.1399221 518.06285336 71.44677734 515.82324219 C69.06754781 510.39859886 69.31221713 505.10021402 69.88427734 499.26074219 C71.32177734 495.63574219 71.32177734 495.63574219 72.88427734 493.26074219 C74.20746998 490.30021123 74.20746998 490.30021123 72.94677734 487.51074219 C70.42302685 479.7910348 72.51952214 473.35967675 75.88427734 466.26074219 C81.6133937 456.55011791 89.95280341 451.68043795 100.65771484 448.80371094 C102.88427734 448.26074219 102.88427734 448.26074219 104.90942383 447.95532227 C106.9913126 447.44700509 106.9913126 447.44700509 107.92993164 445.67285156 C108.18685791 444.99029297 108.44378418 444.30773437 108.70849609 443.60449219 C109.00997559 442.8377417 109.31145508 442.07099121 109.62207031 441.28100586 C109.93547363 440.44931885 110.24887695 439.61763184 110.57177734 438.76074219 C128.68593252 393.48389463 164.16328621 358.45203366 208.88427734 339.26074219 C209.87427734 338.93074219 210.86427734 338.60074219 211.88427734 338.26074219 C211.91005859 337.02582031 211.93583984 335.79089844 211.96240234 334.51855469 C212.60736972 312.89494837 216.37524956 296.78749672 230.04443359 279.83496094 C254.34644963 249.54133973 267.10219084 213.9717931 267.13427734 175.19824219 C267.13495209 174.4636377 267.13562683 173.7290332 267.13632202 172.97216797 C267.12046718 162.10196856 266.67075708 151.82474568 263.88427734 141.26074219 C263.62686768 140.24367187 263.62686768 140.24367187 263.36425781 139.20605469 C257.67483916 116.99749288 248.15362969 96.50310074 232.88427734 79.26074219 C232.27841797 78.535 231.67255859 77.80925781 231.04833984 77.06152344 C227.03638125 72.296188 222.71056298 68.19267439 217.88427734 64.26074219 C216.93681641 63.48730469 215.98935547 62.71386719 215.01318359 61.91699219 C178.94676859 33.04356648 132.7819214 21.54271708 87.88427734 15.26074219 C87.13968262 15.1527832 86.39508789 15.04482422 85.62792969 14.93359375 C80.39328614 14.19096698 75.15351445 13.68698452 69.88427734 13.26074219 C68.79759766 13.17050781 67.71091797 13.08027344 66.59130859 12.98730469 C-22.14075331 6.00943797 -126.68018205 4.82808997 -213.79931641 81.69042969 Z " fill="#17130D" transform="translate(413.11572265625,70.7392578125)"/>
<path d="M0 0 C4.15287003 3.67905265 6.00819476 6.75196343 7.75 12 C8.36101562 13.794375 8.36101562 13.794375 8.984375 15.625 C14.4019672 33.62807561 9.89020697 52.37485833 1.61328125 68.7421875 C-2.55263204 76.31848321 -7.65953967 83.16401304 -12.84936523 90.06274414 C-27.49358752 109.52906895 -34.37090622 130.94457042 -40.75 154.25 C-41.05188232 155.35029541 -41.35376465 156.45059082 -41.66479492 157.58422852 C-43.16223108 163.22419166 -44.31383353 168.7155861 -44.99023438 174.50878906 C-46.00894748 183.05295804 -46.00894748 183.05295804 -49.375 186.26953125 C-52.25 188 -52.25 188 -55.20703125 189.484375 C-62.43884925 193.40877414 -65.8999698 200.88043254 -68.34765625 208.43359375 C-69.61484729 213.41889025 -69.22838293 217.3432213 -67.8125 222.1875 C-67 226 -67 226 -68.3125 228.3125 C-69.1478125 229.1478125 -69.1478125 229.1478125 -70 230 C-72.05838705 236.17516115 -72.04510823 243.61715322 -69.4375 249.5625 C-68.963125 250.366875 -68.48875 251.17125 -68 252 C-68.29317365 253.34273531 -68.63481561 254.67503613 -69 256 C-69.80479599 265.16227246 -69.80479599 265.16227246 -66.421875 273.421875 C-57.7332278 283.0653186 -45.52249113 286.68500183 -33.125 289.25 C-27.28862115 290.72454655 -23.898477 294.394735 -19.6640625 298.50390625 C-7.08204267 310.29263158 11.48197494 314.26805457 28 317 C28.71365723 317.11859375 29.42731445 317.2371875 30.16259766 317.359375 C56.62956926 321.48123014 84.59232049 319.85169275 110.70239258 314.4597168 C118.83427531 312.83264898 118.83427531 312.83264898 123 314 C125.99756482 316.02872856 128.71878765 318.18441563 131.48217773 320.51098633 C151.91221483 337.64047088 177.65681178 340.86134051 203.53515625 338.79785156 C208.4441871 338.22426551 213.21121564 337.20695584 218 336 C218.80179688 335.80132324 219.60359375 335.60264648 220.4296875 335.39794922 C250.47108413 327.77916797 278.16739838 313.92903091 304.62402344 298.02783203 C308.37063966 295.77736961 312.1255934 293.54129125 315.8828125 291.30859375 C316.56224411 290.90478989 317.24167572 290.50098602 317.94169617 290.08494568 C320.0234483 288.84798961 322.10542806 287.61141767 324.1875 286.375 C324.87345245 285.9676059 325.55940491 285.56021179 326.2661438 285.14047241 C330.84198439 282.4234085 335.42012132 279.71025107 340 277 C341.06041504 276.3719043 342.12083008 275.74380859 343.21337891 275.09667969 C357.48402081 266.6764542 371.67091037 258.63253053 388 255 C386.32788615 260.87684459 383.52503633 266.06052019 380.6875 271.4375 C380.15697021 272.4473999 379.62644043 273.4572998 379.07983398 274.49780273 C373.28218902 285.46344955 367.19169696 296.25319425 361 307 C360.46761719 307.93231445 359.93523438 308.86462891 359.38671875 309.82519531 C344.89899825 335.16108123 327.92301466 358.9514424 308.2421875 380.5390625 C306.75680939 382.16935555 305.28263272 383.8099308 303.8203125 385.4609375 C295.75482747 394.5597231 287.2674043 403.12510722 278 411 C276.98471636 411.88952965 275.97048392 412.78025986 274.95703125 413.671875 C238.42950474 445.64929633 194.15458986 471.10014181 146 480 C145.00758301 480.18949219 145.00758301 480.18949219 143.99511719 480.3828125 C134.79002264 481.88854361 126.8122989 477.48542469 119.375 472.375 C117.89036145 471.28494977 116.42795596 470.16331547 115 469 C114.39414062 468.55914063 113.78828125 468.11828125 113.1640625 467.6640625 C112 466 112 466 112.015625 463.421875 C113.36729506 458.72321242 115.53699963 454.59609898 117.75 450.25 C123.80799312 437.94547582 128.71666746 424.88329432 129 411 C129.05800781 409.02386719 129.05800781 409.02386719 129.1171875 407.0078125 C129.70883611 392.88264103 129.70883611 392.88264103 125 380 C123.35 380.33 121.7 380.66 120 381 C120.02094727 382.00675781 120.04189453 383.01351563 120.06347656 384.05078125 C120.13712608 387.86768767 120.18224209 391.68453482 120.21972656 395.50195312 C120.23956301 397.13878007 120.26664112 398.77553895 120.30175781 400.41210938 C120.61539 415.42955641 118.61725629 428.68920973 112.0625 442.375 C111.71767578 443.1282959 111.37285156 443.8815918 111.01757812 444.65771484 C109.1414486 448.72295438 107.12259969 452.68216525 105 456.625 C102.72896555 461.15156695 102.10432093 463.95162706 103 469 C106.51873593 476.36380623 113.11066425 480.13645262 120 484 C120.70511719 484.4021875 121.41023438 484.804375 122.13671875 485.21875 C128.23945098 488.48674454 134.82765952 490.78851063 141.75 491.25 C146.5820066 492.36507845 148.37296229 494.952459 151 499 C154.28700583 505.7400825 155.96007345 512.57811973 157.1875 519.9375 C157.35185547 520.84951172 157.51621094 521.76152344 157.68554688 522.70117188 C159.71568663 534.33132472 160.26088027 545.87865342 160.35009766 557.66137695 C160.36671931 559.26406309 160.39409065 560.86667326 160.43212891 562.46899414 C160.68885536 573.40665742 160.37060815 581.75929333 152.90234375 590.4375 C152.25394531 590.953125 151.60554687 591.46875 150.9375 592 C150.28652344 592.53625 149.63554688 593.0725 148.96484375 593.625 C147.04211799 594.97052578 145.12671419 596.0147961 143 597 C142.52691406 596.16597656 142.05382812 595.33195313 141.56640625 594.47265625 C135.75973943 584.59113552 128.58049745 573.49792152 117 570 C111.11506544 569.42014272 104.86737454 568.84393425 99.296875 571.08984375 C96.59494001 572.16050846 95.66115506 572.06978434 93 571 C91.55454731 570.19550534 90.13699588 569.33904732 88.75 568.4375 C88.04359375 567.98246094 87.3371875 567.52742187 86.609375 567.05859375 C86.07828125 566.70925781 85.5471875 566.35992188 85 566 C85.32613281 564.88496094 85.65226562 563.76992188 85.98828125 562.62109375 C87.20601428 557.73618939 87.26001459 553.07364015 87.1875 548.0625 C87.18685547 547.22009766 87.18621094 546.37769531 87.18554688 545.50976562 C87.71420635 535.50658209 87.71420635 535.50658209 84 527 C81.32064532 526.59917827 81.32064532 526.59917827 78.1640625 526.5078125 C76.96442871 526.44505127 75.76479492 526.38229004 74.52880859 526.31762695 C72.59642334 526.22227661 72.59642334 526.22227661 70.625 526.125 C41.70835129 524.37328093 13.30555363 517.52219166 -9 498 C-9.73347656 497.42121094 -10.46695312 496.84242188 -11.22265625 496.24609375 C-29.07608574 481.66736737 -39.56777896 457.64502898 -42.71875 435.1640625 C-45.18664165 407.40028148 -38.60317871 376.1185376 -21.4375 353.6875 C-20.77621094 352.90761719 -20.11492187 352.12773438 -19.43359375 351.32421875 C-17.62627296 348.39409377 -17.73170472 346.38052051 -18 343 C-24.7846921 344.18732112 -28.07762298 348.7558748 -32 354 C-41.09765659 367.03230532 -46.87493828 381.41608294 -50 397 C-50.30744141 398.47146484 -50.30744141 398.47146484 -50.62109375 399.97265625 C-56.35492708 432.51710336 -48.87951222 461.29616566 -32 489 C-69.56109576 490.90719245 -108.66196717 479.52493771 -137.12451172 454.52587891 C-160.3846984 433.48924016 -174.92636518 404.79135219 -176.89160156 373.29736328 C-177.54777266 359.39067398 -177.18417011 345.75725716 -175 332 C-174.85997559 331.08798828 -174.71995117 330.17597656 -174.57568359 329.23632812 C-171.24392962 307.9656911 -166.18913047 287.10129038 -161.22265625 266.16748047 C-159.51265025 258.95223097 -157.8402539 251.72856063 -156.1875 244.5 C-155.95980423 243.5043956 -155.95980423 243.5043956 -155.72750854 242.48867798 C-152.31411558 227.53674803 -148.99736898 212.56298842 -145.68475723 197.58847046 C-145.2572354 195.65767684 -144.82850297 193.72715141 -144.39974976 191.79663086 C-137.42228079 161.74938049 -137.42228079 161.74938049 -133.75 131.1875 C-133.63398437 129.39795898 -133.63398437 129.39795898 -133.515625 127.57226562 C-133.33204796 124.71534791 -133.1600422 121.85831459 -133 119 C-131.93563721 118.91959473 -130.87127441 118.83918945 -129.7746582 118.75634766 C-125.81372167 118.4549982 -121.85367099 118.14312774 -117.89379883 117.828125 C-116.18210732 117.69343027 -114.47019081 117.56156316 -112.75805664 117.43261719 C-110.29248016 117.24642785 -107.82790049 117.04997561 -105.36328125 116.8515625 C-104.60163162 116.79626373 -103.83998199 116.74096497 -103.05525208 116.68399048 C-99.06039175 116.35174865 -95.55034587 115.93407043 -92 114 C-91.01666329 111.50324332 -91.01666329 111.50324332 -91 109 C-92.02930304 107.74910557 -92.02930304 107.74910557 -94.24145508 107.86938477 C-102.09245982 107.89459175 -109.86203662 108.32558812 -117.6875 108.9375 C-120.18485015 109.12301187 -122.68224588 109.3079112 -125.1796875 109.4921875 C-126.96004395 109.62512207 -126.96004395 109.62512207 -128.77636719 109.76074219 C-135.51422035 110.2608252 -142.25082345 110.68771261 -149 111 C-150.41297363 111.06767578 -150.41297363 111.06767578 -151.85449219 111.13671875 C-334.54605418 119.46903036 -334.54605418 119.46903036 -379 79 C-380.09441406 78.00806641 -380.09441406 78.00806641 -381.2109375 76.99609375 C-385.11499406 73.28230709 -387.99260294 70.01849264 -390 65 C-389.44828125 65.15984375 -388.8965625 65.3196875 -388.328125 65.484375 C-380.82395629 67.1463721 -373.8613766 66.30816372 -367 63 C-366.4740625 62.47019531 -365.948125 61.94039063 -365.40625 61.39453125 C-364 60 -364 60 -362 60 C-361.7215625 59.42765625 -361.443125 58.8553125 -361.15625 58.265625 C-360.01726208 56.03382434 -358.80063617 53.89129126 -357.5 51.75 C-357.0771875 51.04359375 -356.654375 50.3371875 -356.21875 49.609375 C-355.8165625 49.07828125 -355.414375 48.5471875 -355 48 C-354.34 48 -353.68 48 -353 48 C-352.36384766 49.2684375 -352.36384766 49.2684375 -351.71484375 50.5625 C-345.40961169 62.75723454 -338.63074817 71.86675892 -325.109375 76.671875 C-312.8902182 78.57263272 -301.54665824 77.17799291 -291.3125 69.9375 C-284.96738191 64.65370562 -279.79734748 57.78759047 -277 50 C-276.34 50 -275.68 50 -275 50 C-274.6596875 50.76183594 -274.319375 51.52367187 -273.96875 52.30859375 C-268.33428013 64.31181281 -261.28896248 72.872003 -248.8125 77.8125 C-238.44585524 80.90649003 -227.76142435 79.31008165 -218 75 C-207.4105263 68.92339787 -201.0989737 60.31485414 -195 50 C-194.42765625 50.721875 -193.8553125 51.44375 -193.265625 52.1875 C-184.80232478 62.69366579 -177.53324416 70.19777127 -164 73 C-152.03924709 74.13911933 -141.06755288 69.25021517 -131.875 61.875 C-126.72816739 57.20262491 -123.09296484 51.18592969 -120 45 C-119.34 45 -118.68 45 -118 45 C-117.484375 46.03125 -116.96875 47.0625 -116.4375 48.125 C-113.08111171 53.9427397 -108.03109737 58.43463657 -101.55078125 60.5234375 C-90.81004119 62.53013013 -80.45390572 61.78783148 -71 56 C-61.93539604 49.11141602 -55.21436442 41.04222687 -49.875 31.0625 C-49.45863281 30.30259766 -49.04226563 29.54269531 -48.61328125 28.75976562 C-46.23384877 24.49407528 -46.23384877 24.49407528 -44.25531006 20.03909302 C-42.02271009 14.61599379 -42.02271009 14.61599379 -39.2428894 12.94166565 C-37.0612603 12.1846926 -34.91498205 11.6517691 -32.65625 11.171875 C-31.44708923 10.87014374 -31.44708923 10.87014374 -30.21350098 10.56231689 C-27.64873864 9.92692964 -25.07642152 9.33614192 -22.5 8.75 C-19.92580464 8.14317378 -17.35460406 7.52694998 -14.78649902 6.89483643 C-13.1921554 6.50455647 -11.59392314 6.12974304 -9.99182129 5.77264404 C-5.56421209 4.71323907 -2.86490701 3.59721811 0 0 Z " fill="#F33736" transform="translate(554,337)"/>
<path d="M0 0 C4.15287003 3.67905265 6.00819476 6.75196343 7.75 12 C8.36101562 13.794375 8.36101562 13.794375 8.984375 15.625 C14.4019672 33.62807561 9.89020697 52.37485833 1.61328125 68.7421875 C-2.55263204 76.31848321 -7.65953967 83.16401304 -12.84936523 90.06274414 C-27.49358752 109.52906895 -34.37090622 130.94457042 -40.75 154.25 C-41.05188232 155.35029541 -41.35376465 156.45059082 -41.66479492 157.58422852 C-43.16223108 163.22419166 -44.31383353 168.7155861 -44.99023438 174.50878906 C-46.00894748 183.05295804 -46.00894748 183.05295804 -49.375 186.26953125 C-52.25 188 -52.25 188 -55.20703125 189.484375 C-62.43884925 193.40877414 -65.8999698 200.88043254 -68.34765625 208.43359375 C-69.61484729 213.41889025 -69.22838293 217.3432213 -67.8125 222.1875 C-67 226 -67 226 -68.3125 228.3125 C-69.1478125 229.1478125 -69.1478125 229.1478125 -70 230 C-72.05838705 236.17516115 -72.04510823 243.61715322 -69.4375 249.5625 C-68.963125 250.366875 -68.48875 251.17125 -68 252 C-68.29317365 253.34273531 -68.63481561 254.67503613 -69 256 C-69.80479599 265.16227246 -69.80479599 265.16227246 -66.421875 273.421875 C-60.23427336 280.28943286 -53.56283742 283.28080546 -44.76489258 285.60766602 C-42.64683446 286.23542437 -40.87652087 286.83165931 -39 288 C-37.57421875 291.27734375 -37.57421875 291.27734375 -37 295 C-36.78859375 296.05316406 -36.5771875 297.10632813 -36.359375 298.19140625 C-36.15828125 299.30386719 -35.9571875 300.41632813 -35.75 301.5625 C-33.5679373 312.74000484 -30.65836951 323.89226447 -27.109375 334.71630859 C-26.82578125 335.58723145 -26.5421875 336.4581543 -26.25 337.35546875 C-25.98703125 338.12914795 -25.7240625 338.90282715 -25.453125 339.69995117 C-24.91025713 342.45553208 -25.22504238 344.31414975 -26 347 C-27.6015625 349.25390625 -27.6015625 349.25390625 -29.625 351.5625 C-40.45677534 364.6960276 -46.67155203 380.40184555 -50 397 C-50.30744141 398.47146484 -50.30744141 398.47146484 -50.62109375 399.97265625 C-56.35492708 432.51710336 -48.87951222 461.29616566 -32 489 C-69.56109576 490.90719245 -108.66196717 479.52493771 -137.12451172 454.52587891 C-160.3846984 433.48924016 -174.92636518 404.79135219 -176.89160156 373.29736328 C-177.54777266 359.39067398 -177.18417011 345.75725716 -175 332 C-174.85997559 331.08798828 -174.71995117 330.17597656 -174.57568359 329.23632812 C-171.24392962 307.9656911 -166.18913047 287.10129038 -161.22265625 266.16748047 C-159.51265025 258.95223097 -157.8402539 251.72856063 -156.1875 244.5 C-155.95980423 243.5043956 -155.95980423 243.5043956 -155.72750854 242.48867798 C-152.31411558 227.53674803 -148.99736898 212.56298842 -145.68475723 197.58847046 C-145.2572354 195.65767684 -144.82850297 193.72715141 -144.39974976 191.79663086 C-137.42228079 161.74938049 -137.42228079 161.74938049 -133.75 131.1875 C-133.63398437 129.39795898 -133.63398437 129.39795898 -133.515625 127.57226562 C-133.33204796 124.71534791 -133.1600422 121.85831459 -133 119 C-131.93563721 118.91959473 -130.87127441 118.83918945 -129.7746582 118.75634766 C-125.81372167 118.4549982 -121.85367099 118.14312774 -117.89379883 117.828125 C-116.18210732 117.69343027 -114.47019081 117.56156316 -112.75805664 117.43261719 C-110.29248016 117.24642785 -107.82790049 117.04997561 -105.36328125 116.8515625 C-104.60163162 116.79626373 -103.83998199 116.74096497 -103.05525208 116.68399048 C-99.06039175 116.35174865 -95.55034587 115.93407043 -92 114 C-91.01666329 111.50324332 -91.01666329 111.50324332 -91 109 C-92.02930304 107.74910557 -92.02930304 107.74910557 -94.24145508 107.86938477 C-102.09245982 107.89459175 -109.86203662 108.32558812 -117.6875 108.9375 C-120.18485015 109.12301187 -122.68224588 109.3079112 -125.1796875 109.4921875 C-126.96004395 109.62512207 -126.96004395 109.62512207 -128.77636719 109.76074219 C-135.51422035 110.2608252 -142.25082345 110.68771261 -149 111 C-150.41297363 111.06767578 -150.41297363 111.06767578 -151.85449219 111.13671875 C-334.54605418 119.46903036 -334.54605418 119.46903036 -379 79 C-380.09441406 78.00806641 -380.09441406 78.00806641 -381.2109375 76.99609375 C-385.11499406 73.28230709 -387.99260294 70.01849264 -390 65 C-389.44828125 65.15984375 -388.8965625 65.3196875 -388.328125 65.484375 C-380.82395629 67.1463721 -373.8613766 66.30816372 -367 63 C-366.4740625 62.47019531 -365.948125 61.94039063 -365.40625 61.39453125 C-364 60 -364 60 -362 60 C-361.7215625 59.42765625 -361.443125 58.8553125 -361.15625 58.265625 C-360.01726208 56.03382434 -358.80063617 53.89129126 -357.5 51.75 C-357.0771875 51.04359375 -356.654375 50.3371875 -356.21875 49.609375 C-355.8165625 49.07828125 -355.414375 48.5471875 -355 48 C-354.34 48 -353.68 48 -353 48 C-352.36384766 49.2684375 -352.36384766 49.2684375 -351.71484375 50.5625 C-345.40961169 62.75723454 -338.63074817 71.86675892 -325.109375 76.671875 C-312.8902182 78.57263272 -301.54665824 77.17799291 -291.3125 69.9375 C-284.96738191 64.65370562 -279.79734748 57.78759047 -277 50 C-276.34 50 -275.68 50 -275 50 C-274.6596875 50.76183594 -274.319375 51.52367187 -273.96875 52.30859375 C-268.33428013 64.31181281 -261.28896248 72.872003 -248.8125 77.8125 C-238.44585524 80.90649003 -227.76142435 79.31008165 -218 75 C-207.4105263 68.92339787 -201.0989737 60.31485414 -195 50 C-194.42765625 50.721875 -193.8553125 51.44375 -193.265625 52.1875 C-184.80232478 62.69366579 -177.53324416 70.19777127 -164 73 C-152.03924709 74.13911933 -141.06755288 69.25021517 -131.875 61.875 C-126.72816739 57.20262491 -123.09296484 51.18592969 -120 45 C-119.34 45 -118.68 45 -118 45 C-117.484375 46.03125 -116.96875 47.0625 -116.4375 48.125 C-113.08111171 53.9427397 -108.03109737 58.43463657 -101.55078125 60.5234375 C-90.81004119 62.53013013 -80.45390572 61.78783148 -71 56 C-61.93539604 49.11141602 -55.21436442 41.04222687 -49.875 31.0625 C-49.45863281 30.30259766 -49.04226563 29.54269531 -48.61328125 28.75976562 C-46.23384877 24.49407528 -46.23384877 24.49407528 -44.25531006 20.03909302 C-42.02271009 14.61599379 -42.02271009 14.61599379 -39.2428894 12.94166565 C-37.0612603 12.1846926 -34.91498205 11.6517691 -32.65625 11.171875 C-31.44708923 10.87014374 -31.44708923 10.87014374 -30.21350098 10.56231689 C-27.64873864 9.92692964 -25.07642152 9.33614192 -22.5 8.75 C-19.92580464 8.14317378 -17.35460406 7.52694998 -14.78649902 6.89483643 C-13.1921554 6.50455647 -11.59392314 6.12974304 -9.99182129 5.77264404 C-5.56421209 4.71323907 -2.86490701 3.59721811 0 0 Z " fill="#FDB929" transform="translate(554,337)"/>
<path d="M0 0 C3.20423226 1.60211613 3.73410036 4.9354879 4.94140625 8.13671875 C5.22507553 8.8750293 5.50874481 9.61333984 5.80101013 10.37402344 C6.73120262 12.80829397 7.64826943 15.24719261 8.5625 17.6875 C8.87646729 18.52133209 9.19043457 19.35516418 9.51391602 20.21426392 C42.62394085 108.41226482 42.62394085 108.41226482 31 140 C24.68694272 153.63408168 15.52936286 162.57303775 1.31494141 167.88623047 C-9.31858296 171.45893176 -19.71090568 172.49940504 -30.875 172.375 C-32.19346924 172.36557373 -33.51193848 172.35614746 -34.87036133 172.34643555 C-46.10575471 172.17230256 -56.09191828 170.61997631 -66.9296875 167.65234375 C-67.78216064 167.42119873 -68.63463379 167.19005371 -69.51293945 166.9519043 C-71.16212928 166.49787569 -72.80699772 166.02771066 -74.44604492 165.53833008 C-80.44811227 163.83071778 -84.99955729 163.99985243 -91 166 C-108.92710005 167.30479555 -127.73930298 166.49300262 -143 156 C-146.30110636 151.80992575 -147.51028437 149.35798592 -147 144 C-145.4840625 143.5978125 -145.4840625 143.5978125 -143.9375 143.1875 C-140.12672558 142.1064844 -136.61124792 140.62137662 -133 139 C-133 137.35 -133 135.7 -133 134 C-133.90363281 133.97421875 -134.80726563 133.9484375 -135.73828125 133.921875 C-136.91777344 133.86515625 -138.09726562 133.8084375 -139.3125 133.75 C-140.48425781 133.70359375 -141.65601563 133.6571875 -142.86328125 133.609375 C-146 133 -146 133 -147.890625 131.1953125 C-149.59342329 127.82569053 -149.61877404 124.64232904 -149 121 C-146.53067094 115.86379556 -143.19769944 113.12187387 -138 111 C-134.5785818 109.97397849 -131.15651047 109.00803912 -127.6953125 108.125 C-124.86032127 107.30497796 -124.86032127 107.30497796 -124.1171875 105 C-124.0391628 103.66837851 -124 102.33390542 -124 101 C-130.6773716 100.66613142 -136.16276827 101.6144228 -142.59375 103.44140625 C-143.3878125 103.62574219 -144.181875 103.81007813 -145 104 C-146 103 -146 103 -146.08984375 101.21484375 C-145.58427288 93.65720741 -142.58881924 89.3966983 -137.17578125 84.2734375 C-129.78894182 78.19015797 -121.52483419 76.36558202 -112.078125 76.65625 C-98.19060984 78.20714002 -86.72265122 86.3866466 -78 97 C-76.6508748 99.27946498 -75.34573668 101.56028667 -74.0625 103.875 C-70.81400548 109.38178558 -70.81400548 109.38178558 -65.3125 112.1875 C-63.54322951 112.46836177 -61.77212783 112.73777042 -60 113 C-58.64442993 113.25257568 -58.64442993 113.25257568 -57.26147461 113.51025391 C-48.63927014 115.03816807 -40.27109688 115.27797319 -31.54785156 115.20581055 C-29.21148095 115.18719306 -26.87550061 115.185304 -24.5390625 115.18554688 C-23.05207988 115.180643 -21.56509993 115.17481969 -20.078125 115.16796875 C-19.03147675 115.16629951 -19.03147675 115.16629951 -17.96368408 115.16459656 C-14.70065392 115.40836735 -14.70065392 115.40836735 -12 114 C-11.83333333 111.5 -11.83333333 111.5 -12 109 C-13.58272601 107.41727399 -15.38034003 107.65264253 -17.5625 107.4375 C-18.80193359 107.31181641 -18.80193359 107.31181641 -20.06640625 107.18359375 C-20.70449219 107.12300781 -21.34257813 107.06242188 -22 107 C-22.17015625 106.4423999 -22.3403125 105.8847998 -22.515625 105.31030273 C-25.48161148 95.711274 -28.48567683 86.19073411 -33.125 77.25 C-33.43695312 76.62536865 -33.74890625 76.0007373 -34.0703125 75.35717773 C-35.66802755 72.43177813 -36.51362646 71.15796748 -39.7421875 70.109375 C-40.48726562 70.07328125 -41.23234375 70.0371875 -42 70 C-41.73764225 77.47719579 -39.34809265 83.58769313 -36.5 90.39453125 C-32 101.2109375 -32 101.2109375 -32 107 C-42.17823792 107.49249538 -53.29734146 106.23421951 -63 103 C-64.8671875 100.26953125 -64.8671875 100.26953125 -66.875 96.8125 C-69.01157459 93.15706629 -71.05393049 89.70449688 -74.0625 86.6875 C-76.34718057 83.51842696 -76.14284233 82.00927243 -75.55493164 78.24536133 C-74.55165486 74.18590838 -72.67575689 70.6571486 -70.6875 67 C-70.2445459 66.1754834 -69.8015918 65.3509668 -69.34521484 64.50146484 C-54.0469191 36.8155404 -28.98109414 12.93798845 0 0 Z " fill="#F33736" transform="translate(641,451)"/>
<path d="M0 0 C39.37308795 34.45894303 53.04052819 98.56088465 57.25390625 148.37109375 C57.35927745 150.5784853 57.44107884 152.78708192 57.50390625 154.99609375 C57.5505542 156.05739502 57.5505542 156.05739502 57.59814453 157.14013672 C58.40208595 176.34181289 55.53421244 194.60152053 42.19140625 209.30859375 C30.78438088 221.30461557 16.59028666 229.83062557 0.50390625 233.99609375 C-0.15609375 233.99609375 -0.81609375 233.99609375 -1.49609375 233.99609375 C-1.50020264 233.26011963 -1.50431152 232.52414551 -1.50854492 231.76586914 C-2.09714408 170.58451803 -19.46839174 109.41799191 -40.87109375 52.49609375 C-41.11194702 51.85512756 -41.35280029 51.21416138 -41.60095215 50.55377197 C-50.11794585 25.5172717 -50.11794585 25.5172717 -69.49609375 8.99609375 C-73.46697957 7.49118897 -77.4262969 6.22649745 -81.49609375 4.99609375 C-81.49609375 0.70609375 -81.49609375 -3.58390625 -81.49609375 -8.00390625 C-55.90283347 -15.61271336 -22.0851348 -17.73031948 0 0 Z " fill="#444646" transform="translate(717.49609375,401.00390625)"/>
<path d="M0 0 C0.33 0 0.66 0 1 0 C1.15855469 1.0415625 1.31710937 2.083125 1.48046875 3.15625 C3.12571806 13.45541375 5.54086915 23.16277203 9 33 C9.53560547 34.53720703 9.53560547 34.53720703 10.08203125 36.10546875 C15.18830123 49.47559615 23.89964592 63.21229117 34.2265625 73.140625 C36 75 36 75 36 77 C36.56976563 77.24621094 37.13953125 77.49242187 37.7265625 77.74609375 C40.37504223 79.20685319 42.20147276 80.95944549 44.375 83.0625 C55.14767807 92.89158583 68.1092268 99.39855077 81 106 C78.76312889 110.11584284 76.36762103 113.94365288 73.62890625 117.74609375 C69.93245188 122.96409586 66.87394962 128.3881662 63.9375 134.0625 C63.16043701 135.55825562 63.16043701 135.55825562 62.36767578 137.08422852 C58.09255577 145.48577456 54.65901099 153.96127559 52 163 C51.6390625 164.20011719 51.278125 165.40023437 50.90625 166.63671875 C49.22017093 173.5529983 49.28529678 180.83283209 48.96484375 187.9140625 C48.47439739 196.16836724 47.62606797 205.13550375 41.125 211 C35.60980963 214.52972184 30.00375111 215.46301886 23.57421875 216.1171875 C22.75354416 216.20169159 21.93286957 216.28619568 21.08732605 216.3732605 C10.67449633 217.34279363 0.25924243 217.21647912 -10.1875 217.125 C-12.22069864 217.11493386 -14.25390219 217.10581453 -16.28710938 217.09765625 C-21.19153129 217.07596803 -26.09570864 217.04164595 -31 217 C-31.1383728 216.39559586 -31.27674561 215.79119171 -31.41931152 215.16847229 C-32.05541613 212.40401528 -32.69951152 209.64147853 -33.34375 206.87890625 C-33.5612793 205.92810181 -33.77880859 204.97729736 -34.00292969 203.99768066 C-35.80635676 196.30472835 -37.79614898 189.4708386 -43.25 183.5625 C-45.8075105 181.92858434 -45.8075105 181.92858434 -48.17578125 181.52734375 C-50.80211551 180.94705713 -52.71207051 180.43690525 -55 179 C-57.0066871 175.15066017 -58.01739874 171.21114826 -59 167 C-59.33 166.01 -59.66 165.02 -60 164 C-59.44127197 164.01571045 -58.88254395 164.0314209 -58.30688477 164.04760742 C-55.7255301 164.11074924 -53.1443387 164.14923704 -50.5625 164.1875 C-49.68400391 164.21263672 -48.80550781 164.23777344 -47.90039062 164.26367188 C-41.9026065 164.33006801 -36.41867736 163.75567365 -31 161 C-25.97605258 155.09686178 -25.81856167 149.79866354 -25.8125 142.3125 C-25.79413086 141.19391602 -25.79413086 141.19391602 -25.77539062 140.05273438 C-25.76200006 134.62062763 -26.29193247 129.33114996 -26.984375 123.94921875 C-28.09747967 115.1235042 -28.44229884 106.39080888 -28.4375 97.5 C-28.43790283 96.72241333 -28.43830566 95.94482666 -28.4387207 95.14367676 C-28.34519504 63.536839 -19.08121845 25.89593933 0 0 Z " fill="#F33736" transform="translate(367,717)"/>
<path d="M0 0 C11.47805079 9.50333237 20.48961284 22.49826278 22.31445312 37.6027832 C22.47220359 40.28528991 22.51870637 42.93799746 22.5 45.625 C22.49500488 46.57922852 22.49000977 47.53345703 22.48486328 48.51660156 C22.05551356 66.18212199 14.69502053 80.78479127 2 93 C-9.71238552 102.90781056 -22.39073639 108.41564164 -37.75 108.3125 C-38.63107422 108.30686035 -39.51214844 108.3012207 -40.41992188 108.29541016 C-55.51399958 108.01537675 -68.74756379 103.01999104 -79.74609375 92.48046875 C-92.58402637 78.35206804 -94.63597766 62.81753366 -94.140625 44.57617188 C-93.87634854 39.73477394 -92.82113644 35.47077272 -91 31 C-90.70996094 30.24203125 -90.41992188 29.4840625 -90.12109375 28.703125 C-83.11775564 11.70757644 -71.67386351 0.47143915 -54.8125 -6.8125 C-52.88332681 -7.56342016 -50.94649188 -8.29518823 -49 -9 C-48.32582031 -9.2475 -47.65164063 -9.495 -46.95703125 -9.75 C-31.14507779 -14.60484285 -12.95380315 -9.53741551 0 0 Z " fill="#FDF3D0" transform="translate(564,200)"/>
<path d="M0 0 C9.05373729 5.79894005 15.37506468 13.83379808 17.875 24.375 C19.12070016 34.74973949 18.77181687 44.97676141 13.875 54.375 C13.22144531 55.66277344 13.22144531 55.66277344 12.5546875 56.9765625 C5.63110919 69.49953747 -5.49555073 77.36933033 -18.75 82.375 C-29.50431696 85.12610434 -43.99394284 85.08140529 -54.125 80.375 C-55.28515625 79.84712891 -55.28515625 79.84712891 -56.46875 79.30859375 C-66.29753064 74.34505953 -72.27124297 66.99115104 -75.734375 56.53515625 C-78.22034739 42.78772891 -75.31143122 30.0619533 -67.4375 18.5625 C-60.41448185 9.61933083 -52.42622309 3.16186779 -42.125 -1.625 C-41.27421875 -2.03878906 -40.4234375 -2.45257813 -39.546875 -2.87890625 C-26.58046553 -8.44980373 -12.1517377 -6.62822056 0 0 Z " fill="#BE1709" transform="translate(307.125,124.625)"/>
<path d="M0 0 C2.5993851 2.5993851 3.31741855 5.06878964 4.6171875 8.515625 C4.87023148 9.18552963 5.12327545 9.85543427 5.38398743 10.54563904 C6.22249475 12.77747453 7.05016926 15.01307552 7.875 17.25 C8.16178619 18.02574371 8.44857239 18.80148743 8.74404907 19.60073853 C22.8932963 58.00835544 34.64438433 97.53712469 41.48095703 137.94580078 C41.83686113 140.04004364 42.20569919 142.13211754 42.58544922 144.22216797 C45.85853279 162.30829264 46.49973336 179.69246044 46 198 C35.88118728 200.96336658 26.44257285 201.1223739 16 201 C15.76925781 199.92363281 15.53851562 198.84726562 15.30078125 197.73828125 C13.45251931 189.38605755 11.3563151 181.66530329 7.85546875 173.83203125 C5.91025796 167.39240649 9.21561968 161.89635076 11.84375 156.09765625 C19.66078435 135.15539869 13.35572234 106.66551447 8 86 C7.66972573 84.70187281 7.3396507 83.4036949 7.00976562 82.10546875 C1.20750933 59.45832904 -6.34645134 37.50169936 -15.30737305 15.90380859 C-16 14 -16 14 -16 12 C-14.87851562 11.85304688 -14.87851562 11.85304688 -13.734375 11.703125 C-7.73705281 10.85530314 -7.73705281 10.85530314 -2.375 8.25 C-0.69751753 5.50502868 -0.28939053 3.1832958 0 0 Z " fill="#282828" transform="translate(670,437)"/>
<path d="M0 0 C5.6088358 3.3894255 10.9073581 9.06333704 12.5625 15.5 C12.5625 16.49 12.5625 17.48 12.5625 18.5 C11.40234375 18.65855469 10.2421875 18.81710937 9.046875 18.98046875 C-23.93548017 23.77468334 -51.24897087 46.69356396 -70.84375 72.8671875 C-78.52483227 83.45759536 -84.86044037 94.68106569 -90.4375 106.5 C-91.24832031 106.09007812 -92.05914063 105.68015625 -92.89453125 105.2578125 C-100.07850125 101.76200405 -106.52734164 99.52459479 -114.4375 98.5 C-112.62377584 91.72398321 -110.3141607 85.61691225 -107 79.4375 C-106.56534424 78.62313477 -106.13068848 77.80876953 -105.68286133 76.96972656 C-90.48427392 49.17340834 -38.34197505 -16.4006136 0 0 Z " fill="#454747" transform="translate(645.4375,419.5)"/>
<path d="M0 0 C12.01338679 8.68921928 20.83728924 19.21620047 26.03515625 33.1953125 C26.35484375 34.04867187 26.67453125 34.90203125 27.00390625 35.78125 C32.56283241 53.74481694 29.63820156 73.62450993 21.22265625 90.1328125 C11.20290009 106.98537948 -2.99630819 118.30588481 -21.40234375 124.6953125 C-39.40939065 129.22256551 -57.93817692 127.07819675 -74.26953125 118.44921875 C-76.95264466 116.81680964 -79.45942647 115.08635789 -81.96484375 113.1953125 C-82.90650391 112.54175781 -82.90650391 112.54175781 -83.8671875 111.875 C-94.71395921 103.65998469 -102.49482286 88.45966197 -104.6796875 75.265625 C-106.75399983 52.93124845 -102.80845696 32.85720124 -89.08984375 14.6953125 C-67.02590251 -10.93148307 -28.70672099 -18.90527677 0 0 Z M-81.96484375 20.1953125 C-84.26164699 23.06516122 -86.18827687 25.98085538 -87.96484375 29.1953125 C-88.52751953 30.19498047 -88.52751953 30.19498047 -89.1015625 31.21484375 C-96.86336287 45.84396192 -98.9466198 64.46496072 -94.33984375 80.4453125 C-89.13841155 94.41279477 -80.21235042 105.26557056 -66.96484375 112.1953125 C-52.61333989 118.47409544 -34.79546354 119.96515214 -19.9140625 114.515625 C-1.13167133 106.10708432 10.11061258 93.40445029 18.078125 74.75390625 C22.09576591 63.00277813 22.09185722 46.32928152 17.34765625 34.84765625 C16.91453125 33.97238281 16.48140625 33.09710938 16.03515625 32.1953125 C15.56078125 31.20660156 15.08640625 30.21789062 14.59765625 29.19921875 C7.54389579 15.88863712 -3.40473027 6.04368357 -17.56640625 0.8828125 C-42.16946034 -6.45225953 -64.79469236 1.88909095 -81.96484375 20.1953125 Z " fill="#17130C" transform="translate(565.96484375,190.8046875)"/>
<path d="M0 0 C4.75629708 3.39735506 8.70903883 7.99167638 10.96875 13.40625 C10.96875 14.39625 10.96875 15.38625 10.96875 16.40625 C10.00775391 16.79103516 10.00775391 16.79103516 9.02734375 17.18359375 C2.00837837 20.29034892 -1.83323656 24.02582561 -6.03125 30.40625 C-6.50433594 30.03113281 -6.97742188 29.65601563 -7.46484375 29.26953125 C-11.09454478 26.46058133 -14.77637387 23.82359212 -18.71875 21.46875 C-19.42386719 21.04722656 -20.12898438 20.62570312 -20.85546875 20.19140625 C-23.59579256 19.20252818 -25.26789433 19.62709017 -28.03125 20.40625 C-28.03125 22.38625 -28.03125 24.36625 -28.03125 26.40625 C-27.226875 26.591875 -26.4225 26.7775 -25.59375 26.96875 C-17.73627164 30.13931144 -12.21115672 35.04935101 -8.77734375 42.84375 C-7.5916412 46.9161106 -7.65517749 50.39270517 -9.03125 54.40625 C-11.5103159 57.60504472 -13.53587854 59.14455999 -17.53125 59.84375 C-22.07043265 59.27635217 -24.83124888 57.26786214 -28.56640625 54.71875 C-31.30926787 53.25820879 -32.97148816 53.1444522 -36.03125 53.40625 C-36.6176482 56.19348657 -36.6176482 56.19348657 -36.03125 59.40625 C-32.02270596 63.5846476 -26.62301026 66.12728707 -20.91015625 66.7421875 C-12.19103631 66.95841588 -12.19103631 66.95841588 -5.03125 62.40625 C-3.52542159 60.45864859 -2.28893438 58.53463895 -1.03125 56.40625 C-0.04125 56.73625 0.94875 57.06625 1.96875 57.40625 C7.21325527 58.02623996 11.74429924 57.8397464 16.328125 54.89453125 C19.58547621 51.93964836 21.76829288 48.17846221 23.96875 44.40625 C25.23187491 48.19562472 24.40304664 50.87283237 23.4921875 54.62890625 C23.24150009 55.68083412 23.24150009 55.68083412 22.98574829 56.75401306 C22.62866077 58.2353028 22.26691873 59.7154771 21.90087891 61.19458008 C21.34609507 63.45917757 20.82312456 65.72968587 20.30078125 68.00195312 C19.94985411 69.44057815 19.59705145 70.87874725 19.2421875 72.31640625 C19.08986664 72.99663345 18.93754578 73.67686066 18.78060913 74.37770081 C18.28662109 76.28930664 18.28662109 76.28930664 16.96875 79.40625 C14.46728516 80.8112793 14.46728516 80.8112793 11.96875 81.40625 C10.855 81.70789063 10.855 81.70789063 9.71875 82.015625 C-8.8178539 84.64866533 -26.21292057 81.25752101 -41.46875 70.09375 C-48.68021007 62.53051139 -51.98257959 54.33183017 -52.34375 44.03125 C-51.94427164 29.4303159 -43.39420973 14.69404762 -33.328125 4.40234375 C-24.04064883 -3.6689153 -11.2073676 -5.85459501 0 0 Z " fill="#F33837" transform="translate(366.03125,525.59375)"/>
<path d="M0 0 C0.99 0.495 0.99 0.495 2 1 C-3.55479645 6.89604674 -9.64651415 11.99178618 -16 17 C-16.62197266 17.49306641 -17.24394531 17.98613281 -17.88476562 18.49414062 C-52.15218468 45.55439073 -91.69662955 66.99673682 -135 75 C-135.66161133 75.12632812 -136.32322266 75.25265625 -137.00488281 75.3828125 C-146.20997736 76.88854361 -154.1877011 72.48542469 -161.625 67.375 C-163.10963855 66.28494977 -164.57204404 65.16331547 -166 64 C-166.60585938 63.55914063 -167.21171875 63.11828125 -167.8359375 62.6640625 C-169 61 -169 61 -168.94140625 58.3359375 C-167.75493509 54.13159571 -165.95784168 50.48423644 -163.9375 46.625 C-163.37192383 45.52091797 -163.37192383 45.52091797 -162.79492188 44.39453125 C-161.87055636 42.59260354 -160.93627386 40.79576901 -160 39 C-159.09556152 39.14147461 -158.19112305 39.28294922 -157.25927734 39.42871094 C-148.00252347 40.78289347 -138.99689868 41.31867365 -129.625 41.25 C-128.61036179 41.24484879 -128.61036179 41.24484879 -127.57522583 41.23959351 C-117.26243237 41.17841116 -107.15515358 40.91939939 -97 39 C-96.19433594 38.84934082 -95.38867188 38.69868164 -94.55859375 38.54345703 C-63.48778026 32.51798817 -32.53474135 21.00714671 -6.12890625 3.375 C-4.11848925 2.07652884 -2.21751823 0.90395648 0 0 Z " fill="#FCBA28" transform="translate(835,742)"/>
<path d="M0 0 C1.61531248 5.62574348 -0.55446519 9.84165882 -3 15 C-9.50880686 25.65077486 -17.08950502 33.02983501 -29 37 C-38.12414469 37.7658155 -45.50519036 37.76523818 -53 32 C-53.83015625 31.38898438 -54.6603125 30.77796875 -55.515625 30.1484375 C-62.22641863 24.34507823 -66.44627096 15.67128777 -68 7 C-68.01616403 5.33341172 -68.01812613 3.6665681 -68 2 C-67.42831589 1.98969254 -66.85663177 1.97938507 -66.2676239 1.96876526 C-60.21455282 1.85897929 -54.16158076 1.74456448 -48.10864258 1.62768555 C-45.86191925 1.58487707 -43.61517451 1.54317527 -41.3684082 1.50268555 C-27.55963709 1.25296229 -13.78606125 0.84319999 0 0 Z " fill="#FBF2D0" transform="translate(353,370)"/>
<path d="M0 0 C3.25926751 7.6731095 5.7917111 14.61163812 6 23 C-16.57033502 38.04689002 -65.5384762 33.01052256 -91 28 C-91.74733398 27.86609863 -92.49466797 27.73219727 -93.26464844 27.59423828 C-105.38258954 25.40280877 -119.55874022 21.52565336 -128 12 C-116.39820414 10.1282436 -107.3185477 9.74219008 -95.9375 12.9375 C-70.10409671 20.11921206 -37.07156967 21.07985292 -13 8 C-9.93503353 5.95053447 -7.00211039 3.82415229 -4.109375 1.5390625 C-2 0 -2 0 0 0 Z " fill="#404141" transform="translate(669,616)"/>
<path d="M0 0 C9.05373729 5.79894005 15.37506468 13.83379808 17.875 24.375 C19.12070016 34.74973949 18.77181687 44.97676141 13.875 54.375 C13.22144531 55.66277344 13.22144531 55.66277344 12.5546875 56.9765625 C5.63110919 69.49953747 -5.49555073 77.36933033 -18.75 82.375 C-29.50431696 85.12610434 -43.99394284 85.08140529 -54.125 80.375 C-55.28515625 79.84712891 -55.28515625 79.84712891 -56.46875 79.30859375 C-66.29753064 74.34505953 -72.27124297 66.99115104 -75.734375 56.53515625 C-78.22034739 42.78772891 -75.31143122 30.0619533 -67.4375 18.5625 C-60.41448185 9.61933083 -52.42622309 3.16186779 -42.125 -1.625 C-41.27421875 -2.03878906 -40.4234375 -2.45257813 -39.546875 -2.87890625 C-26.58046553 -8.44980373 -12.1517377 -6.62822056 0 0 Z M-60.5625 20.25 C-66.59675141 28.48883178 -69.54136762 35.33425967 -69.625 45.5625 C-69.63144531 46.31080078 -69.63789063 47.05910156 -69.64453125 47.83007812 C-69.45445329 56.1130909 -66.85884868 62.49441267 -61.20703125 68.55078125 C-53.08093768 75.67064184 -42.54951875 77.87094396 -32.01171875 77.62109375 C-19.75749589 76.57641711 -7.57148973 71.52182682 0.875 62.375 C8.47364309 52.84916482 12.92540233 41.62969386 11.875 29.375 C10.14408936 19.89899769 5.34854941 12.64944727 -2.18359375 6.6953125 C-21.95081142 -6.74798644 -46.44242123 3.58671755 -60.5625 20.25 Z " fill="#130D0B" transform="translate(307.125,124.625)"/>
<path d="M0 0 C0.65444092 0.05534912 1.30888184 0.11069824 1.9831543 0.16772461 C22.98090202 1.90174846 43.94183782 2.57159214 65 3 C63.42712733 14.50946005 59.22833503 24.22003922 49.9140625 31.66796875 C42.33654339 36.61803391 35.00040431 38.07959395 26 37 C17.68614347 34.43178283 10.92195969 28.87736784 6.46484375 21.4375 C5.2136644 18.98620985 4.06743188 16.53618504 3 14 C2.64679688 13.26136719 2.29359375 12.52273438 1.9296875 11.76171875 C0.63095092 7.90370715 0.33462547 4.04192344 0 0 Z " fill="#FBF2D0" transform="translate(207,369)"/>
<path d="M0 0 C-0.40673647 10.57514827 -5.74083921 19.53929665 -12.92578125 27.09375 C-20.25096298 33.82574375 -28.20665793 36.59345812 -38.16015625 36.375 C-45.38818293 35.42054256 -51.58540869 31.38436644 -56.46484375 26.078125 C-61.52667661 19.22597467 -63.32228529 12.33244496 -64 4 C-63.17612793 3.9498877 -62.35225586 3.89977539 -61.50341797 3.84814453 C-57.62706727 3.6104209 -53.75095747 3.36903683 -49.875 3.125 C-49.17282349 3.08086975 -48.47064697 3.0367395 -47.74719238 2.99127197 C-37.88626426 2.36683102 -28.04686856 1.63916579 -18.21826172 0.60986328 C-12.13141701 -0.00017137 -6.11526484 -0.09116462 0 0 Z " fill="#FCF3D0" transform="translate(429,365)"/>
<path d="M0 0 C-3.53655726 12.53171377 -13.82937901 25.8420757 -24.72265625 32.71875 C-31.71971503 36.26156457 -38.07345636 37.59109113 -45.63671875 35.1484375 C-53.38008822 31.74552177 -57.66977801 26.60002811 -60.875 18.875 C-62.11972405 15.5414287 -62.03427667 12.53651038 -62 9 C-60.99960693 8.86948242 -59.99921387 8.73896484 -58.96850586 8.60449219 C-41.22773433 6.28270797 -23.52676746 3.93827159 -5.92578125 0.69921875 C-2 0 -2 0 0 0 Z " fill="#FBF2D0" transform="translate(501,354)"/>
<path d="M0 0 C5.83646878 3.1735799 8.39225257 7.80453727 10.34375 14.00390625 C12.19364658 22.44956505 11.65375692 31.10624905 8 39 C5.67313848 42.60396081 3.21937834 45.24961333 -0.4375 47.5 C-5.43877665 48.47585886 -8.8527694 47.69733625 -13.1875 45.0625 C-18.71429226 39.80241622 -20.16813775 33.10818146 -20.5234375 25.73242188 C-20.67493808 17.07416384 -19.62275374 9.84880527 -13.40234375 3.32421875 C-8.66026609 -0.81199149 -6.13794151 -1.50932988 0 0 Z " fill="#19150D" transform="translate(517,234)"/>
<path d="M0 0 C4.12846497 2.7787745 6.77694413 5.10777652 8 10 C8.3515625 12.34375 8.3515625 12.34375 8 15 C5.875 17.4375 5.875 17.4375 3 20 C-3.05934986 25.62632827 -6.99748913 31.78630563 -11 39 C-17.86210302 38.41998891 -23.97895423 36.59834522 -30.5 34.4375 C-31.51320313 34.10814453 -32.52640625 33.77878906 -33.5703125 33.43945312 C-36.04904547 32.6326957 -38.52543319 31.81942892 -41 31 C-35.57312239 16.87581005 -23.44973189 7.9582047 -10.25 1.625 C-6.65646682 0.1282208 -3.91862843 -0.78372569 0 0 Z " fill="#FCDC79" transform="translate(294,884)"/>
<path d="M0 0 C7.76888994 4.02341148 15.62592336 10.71253567 18.79296875 19.125 C18.41796875 21.8671875 18.41796875 21.8671875 17.79296875 24.125 C9.27951372 27.43360848 1.02451652 29.65471932 -8.01953125 30.9375 C-8.87764404 31.0610083 -9.73575684 31.1845166 -10.61987305 31.31176758 C-16.50555783 32.08157742 -22.27544361 32.26036654 -28.20703125 32.125 C-27.61964626 20.37730028 -23.38559679 11.64900953 -15.390625 3.0859375 C-10.74965949 -1.08179897 -6.04536117 -2.39674496 0 0 Z " fill="#FBDA75" transform="translate(669.20703125,915.875)"/>
<path d="M0 0 C4.94391663 0.95993166 9.88776129 1.92023294 14.83154297 2.88085938 C16.50925817 3.20680443 18.18699214 3.53265292 19.86474609 3.85839844 C28.5808863 5.55075205 37.29619295 7.24505723 46 9 C45.68342349 17.5475657 41.99818869 23.56305199 36.4375 29.9375 C32.80473084 33.0113816 30.42359173 34.81546033 25.625 35.4375 C18.01113587 34.51858536 13.64118584 30.21296424 8.859375 24.55078125 C3.32197821 16.95431045 1.4979823 9.11894204 0 0 Z " fill="#FCF3D1" transform="translate(149,359)"/>
<path d="M0 0 C4.51239458 2.59754079 7.19984979 4.9783298 8.8046875 10.09375 C9.56068241 15.48291371 8.89862638 19.50274392 5.8046875 24.09375 C0.89459881 29.05127916 -3.40618893 32.36841213 -10.5703125 32.46875 C-15.59013456 32.35511887 -18.4509848 31.65542757 -22.1953125 28.09375 C-25.27849352 24.46537233 -26.52975729 21.38202056 -26.1953125 16.59375 C-25.25770048 11.24116874 -23.62793214 6.98687738 -19.2578125 3.5859375 C-13.27445439 -0.26364952 -6.98217858 -2.88232283 0 0 Z " fill="#160F0B" transform="translate(225.1953125,195.90625)"/>
<path d="M0 0 C3.37019429 2.06931139 6.2166881 4.4333762 8 8 C8.51838766 13.20087292 8.66595399 17.61686478 6.375 22.375 C1.50411287 27.75861209 -2.92328869 31.46156643 -10.3125 32.4375 C-15.16679451 31.86156675 -18.30276315 30.15597469 -22 27 C-24.72967057 23.16140076 -25.56551794 19.75087669 -25.33984375 15.01171875 C-24.21592138 8.35861507 -20.10281229 4.89722034 -14.90234375 1.1640625 C-10.09781257 -1.7758765 -5.29581635 -1.32996296 0 0 Z " fill="#160F0C" transform="translate(298,216)"/>
<path d="M0 0 C2.38671875 2.03515625 2.38671875 2.03515625 4 4 C3.60167969 4.70382812 3.20335937 5.40765625 2.79296875 6.1328125 C-0.99591228 13.194328 -3.04164803 19.41277545 -4.45703125 27.26171875 C-5 30 -5 30 -6 31 C-16.63911266 31.8433443 -26.62807681 30.1095437 -37 28 C-35.58882961 17.97707182 -27.77178397 9.46517933 -20.015625 3.46484375 C-13.88399487 -0.55204533 -7.18675628 -1.39501963 0 0 Z " fill="#FCDB78" transform="translate(638,913)"/>
<path d="M0 0 C5.70350173 5.54054454 7.42088482 12.87241589 8.6875 20.4375 C8.81705078 21.16904297 8.94660156 21.90058594 9.08007812 22.65429688 C9.39429815 24.434877 9.69824068 26.21726583 10 28 C-1.77875299 26.82901286 -13.37050465 25.20813203 -25 23 C-23.23488673 17.17763585 -20.53280349 12.89157407 -17 8 C-16.57332031 7.40445313 -16.14664062 6.80890625 -15.70703125 6.1953125 C-11.50440785 0.72782187 -6.85174306 -2.38321498 0 0 Z " fill="#FADA78" transform="translate(317,906)"/>
<path d="M0 0 C1.8125 1 1.8125 1 3 3 C3.67738029 9.66090622 2.64121384 15.33814011 -1.32421875 20.8359375 C-3.84235834 23.65149516 -5.37724744 24.86299444 -9.125 25.6875 C-12 25 -12 25 -14.375 23 C-16.43130466 19.20374524 -16.88302544 16.16941577 -16 12 C-13.21652382 5.4736367 -7.89380203 -1.49342201 0 0 Z " fill="#F13837" transform="translate(382,550)"/>
<path d="M0 0 C3.1875 2 3.1875 2 5 5 C5.19692441 9.13541271 5.11522319 11.46449982 2.68359375 14.8125 C-0.78570429 18.42961274 -3.25609307 19.80623256 -8.375 20.375 C-12 20 -12 20 -14.9375 18 C-17.24794831 14.63934792 -17.68493197 12.90849829 -17.4296875 8.9296875 C-15.49410466 0.23716093 -7.51952388 -1.13569916 0 0 Z " fill="#BF1709" transform="translate(223,202)"/>
<path d="M0 0 C3.3265563 2.67747214 3.89853117 4.28971818 4.5 8.5 C3.91630576 12.58585971 2.9344178 14.1470938 0 17 C-3.03719738 19.27789804 -6.26589287 19.48436749 -10.02734375 19.37890625 C-13.55962685 18.70042811 -15.01068278 16.85964351 -17 14 C-17.6875 11.125 -17.6875 11.125 -17 8 C-12.41235966 1.20917676 -8.26942901 -1.27786914 0 0 Z " fill="#BF1708" transform="translate(296,222)"/>
<path d="M0 0 C1.0351304 3.10539119 1.0044902 3.90231086 0.29296875 6.94140625 C0.11830078 7.68970703 -0.05636719 8.43800781 -0.23632812 9.20898438 C-0.42646484 9.98564453 -0.61660156 10.76230469 -0.8125 11.5625 C-0.99103516 12.34302734 -1.16957031 13.12355469 -1.35351562 13.92773438 C-2.74347187 19.74347187 -2.74347187 19.74347187 -5 22 C-5.16435547 20.98679687 -5.16435547 20.98679687 -5.33203125 19.953125 C-5.49058594 19.06109375 -5.64914062 18.1690625 -5.8125 17.25 C-5.96332031 16.36828125 -6.11414063 15.4865625 -6.26953125 14.578125 C-7.05414248 11.8089089 -8.14595359 10.1740599 -10 8 C-9.36191406 7.50628906 -8.72382813 7.01257813 -8.06640625 6.50390625 C-7.24011719 5.86324219 -6.41382813 5.22257813 -5.5625 4.5625 C-4.73878906 3.92441406 -3.91507812 3.28632812 -3.06640625 2.62890625 C-1.12498733 1.16417803 -1.12498733 1.16417803 0 0 Z " fill="#ED3A3A" transform="translate(398,534)"/>
<path d="M0 0 C0.69520752 0.02239746 1.39041504 0.04479492 2.10668945 0.06787109 C4.07421875 0.17578125 4.07421875 0.17578125 7.3125 0.6875 C7.9725 1.6775 8.6325 2.6675 9.3125 3.6875 C7.37507659 3.71453381 5.43754521 3.73391125 3.5 3.75 C2.42105469 3.76160156 1.34210938 3.77320312 0.23046875 3.78515625 C-2.6875 3.6875 -2.6875 3.6875 -5.6875 2.6875 C-7.06131655 2.62974039 -8.43789852 2.62582201 -9.8125 2.66015625 C-10.99585938 2.67852539 -10.99585938 2.67852539 -12.203125 2.69726562 C-13.85946248 2.73242373 -15.51572167 2.77148688 -17.171875 2.81445312 C-17.96078125 2.82541016 -18.7496875 2.83636719 -19.5625 2.84765625 C-20.28179687 2.86449463 -21.00109375 2.88133301 -21.7421875 2.89868164 C-23.6875 2.6875 -23.6875 2.6875 -26.6875 0.6875 C-18.01137323 -1.3110228 -8.83950291 -0.40574767 0 0 Z " fill="#231F1D" transform="translate(472.6875,71.3125)"/>
<path d="M0 0 C0.33 1.65 0.66 3.3 1 5 C5.95 5.33 10.9 5.66 16 6 C15.67 6.66 15.34 7.32 15 8 C12.24968413 7.85888117 9.49984582 7.71228835 6.75 7.5625 C5.58404297 7.50352539 5.58404297 7.50352539 4.39453125 7.44335938 C3.64042969 7.40146484 2.88632812 7.35957031 2.109375 7.31640625 C1.41811523 7.27974854 0.72685547 7.24309082 0.01464844 7.20532227 C-2.06628329 6.99324476 -3.98572422 6.55491323 -6 6 C-6 5.34 -6 4.68 -6 4 C-7.65 3.67 -9.3 3.34 -11 3 C-6.9903514 0.32690093 -4.82843714 0 0 0 Z " fill="#250F0C" transform="translate(280,119)"/>
<path d="M0 0 C0.33 0 0.66 0 1 0 C2.76595745 20.72340426 2.76595745 20.72340426 -1 29 C-3 26 -3 26 -2.79296875 24.08203125 C-2.49326172 22.95861328 -2.49326172 22.95861328 -2.1875 21.8125 C-0.53196244 14.62426273 -0.34623891 7.34390962 0 0 Z " fill="#231F16" transform="translate(586,241)"/>
<path d="M0 0 C1.010625 0.33 2.02125 0.66 3.0625 1 C6.76343438 2.06279378 10.14200649 2.23147961 14 2 C14.33 1.67 14.66 1.34 15 1 C16.99958364 0.95919217 19.00045254 0.95745644 21 1 C20.67 1.99 20.34 2.98 20 4 C13.30386804 4.797837 6.74233419 5.12910853 0 5 C0 3.35 0 1.7 0 0 Z " fill="#E5CE73" transform="translate(641,943)"/>
<path d="M0 0 C0.66 0.33 1.32 0.66 2 1 C-6.40197944 9.61438904 -6.40197944 9.61438904 -9 11 C-11.75 10.6875 -11.75 10.6875 -14 10 C-11.19533807 7.00618646 -8.38815731 4.8006379 -4.875 2.6875 C-4.00617187 2.15511719 -3.13734375 1.62273438 -2.2421875 1.07421875 C-1.50226562 0.71972656 -0.76234375 0.36523438 0 0 Z " fill="#F5C929" transform="translate(835,742)"/>
<path d="M0 0 C6.27 0 12.54 0 19 0 C19 0.99 19 1.98 19 3 C16.39521117 3.0809313 13.79293347 3.14045434 11.1875 3.1875 C10.08051758 3.22520508 10.08051758 3.22520508 8.95117188 3.26367188 C6.79296875 3.29296875 6.79296875 3.29296875 3 3 C2.01 2.01 1.02 1.02 0 0 Z " fill="#291E0E" transform="translate(374,448)"/>
<path d="M0 0 C0.33 0 0.66 0 1 0 C1 5.94 1 11.88 1 18 C0.34 18 -0.32 18 -1 18 C-1.33 18.66 -1.66 19.32 -2 20 C-2.66 20 -3.32 20 -4 20 C-4.1875 16.6875 -4.1875 16.6875 -4 13 C-3.5153125 12.5359375 -3.030625 12.071875 -2.53125 11.59375 C-0.43395479 9.4108509 -0.50586863 7.79037686 -0.3125 4.8125 C-0.21388672 3.46091797 -0.21388672 3.46091797 -0.11328125 2.08203125 C-0.05720703 1.05142578 -0.05720703 1.05142578 0 0 Z " fill="#28100C" transform="translate(237,166)"/>
<path d="M0 0 C0.66 0.33 1.32 0.66 2 1 C2.05389087 2.95803507 2.09274217 4.91648909 2.125 6.875 C2.14820313 7.96554687 2.17140625 9.05609375 2.1953125 10.1796875 C2 13 2 13 0 15 C-1 14 -1 14 -1.1328125 11.09375 C-1.13023437 9.9078125 -1.12765625 8.721875 -1.125 7.5 C-1.12757813 6.3140625 -1.13015625 5.128125 -1.1328125 3.90625 C-1 1 -1 1 0 0 Z " fill="#1F1C15" transform="translate(526,250)"/>
<path d="M0 0 C3.63 0 7.26 0 11 0 C11 0.66 11 1.32 11 2 C11.99 2.33 12.98 2.66 14 3 C9.38 3.33 4.76 3.66 0 4 C0 2.68 0 1.36 0 0 Z " fill="#EBE4CC" transform="translate(365,369)"/>
<path d="M0 0 C0.33 0 0.66 0 1 0 C1.33910994 2.04071515 1.67102704 4.08262621 2 6.125 C2.185625 7.26195312 2.37125 8.39890625 2.5625 9.5703125 C2.96956049 12.76137602 3.07809902 15.78817791 3 19 C2.01 18.67 1.02 18.34 0 18 C-0.19484938 15.56288386 -0.38115178 13.12562602 -0.5625 10.6875 C-0.64661133 9.65206055 -0.64661133 9.65206055 -0.73242188 8.59570312 C-0.96581505 5.37487726 -1.03224218 3.09672655 0 0 Z " fill="#252320" transform="translate(720,852)"/>
<path d="M0 0 C0.33 0 0.66 0 1 0 C1 3.3 1 6.6 1 10 C1.66 10 2.32 10 3 10 C3 12.31 3 14.62 3 17 C1.68 17.33 0.36 17.66 -1 18 C-0.505 9.09 -0.505 9.09 0 0 Z " fill="#24211D" transform="translate(367,682)"/>
<path d="M0 0 C5.28 0.66 10.56 1.32 16 2 C14 4 14 4 11.8359375 4.1953125 C10.61777344 4.16050781 10.61777344 4.16050781 9.375 4.125 C8.55773437 4.10695313 7.74046875 4.08890625 6.8984375 4.0703125 C6.27195313 4.04710937 5.64546875 4.02390625 5 4 C4.67 4.99 4.34 5.98 4 7 C2.02 3.535 2.02 3.535 0 0 Z " fill="#F5CB2A" transform="translate(164,402)"/>
<path d="M0 0 C3.96 0 7.92 0 12 0 C12.33 0.99 12.66 1.98 13 3 C8.71 3 4.42 3 0 3 C0 2.01 0 1.02 0 0 Z " fill="#261B10" transform="translate(450,444)"/>
<path d="M0 0 C3.00617269 3.00617269 2.59585316 5.82381598 3 10 C0.69 9.67 -1.62 9.34 -4 9 C-3.34 7.35 -2.68 5.7 -2 4 C-1.34 4 -0.68 4 0 4 C0 2.68 0 1.36 0 0 Z " fill="#F7E481" transform="translate(324,924)"/>
<path d="M0 0 C-1 2 -2 4 -3 6 C-4.16945792 5.19152271 -5.33550461 4.37810888 -6.5 3.5625 C-7.1496875 3.11003906 -7.799375 2.65757812 -8.46875 2.19140625 C-8.9740625 1.79824219 -9.479375 1.40507813 -10 1 C-10 0.67 -10 0.34 -10 0 C-6.33694766 -0.74926071 -3.57644848 -1.2380014 0 0 Z " fill="#EFEFEE" transform="translate(702,649)"/>
<path d="M0 0 C0.66 0 1.32 0 2 0 C3.65 3.63 5.3 7.26 7 11 C6.01 10.67 5.02 10.34 4 10 C3.67 9.34 3.34 8.68 3 8 C1.68 8 0.36 8 -1 8 C-0.67 5.36 -0.34 2.72 0 0 Z " fill="#EFC02C" transform="translate(277,387)"/>
<path d="M0 0 C0 3 0 3 -1.4375 5.375 C-3.00282114 8.00473952 -3.57112625 9.99788375 -4 13 C-3.34 13.33 -2.68 13.66 -2 14 C-3.65 14 -5.3 14 -7 14 C-6.44010697 10.00987629 -5.24330232 7.4744948 -2.9375 4.1875 C-2.38964844 3.39730469 -1.84179688 2.60710938 -1.27734375 1.79296875 C-0.64505859 0.90544922 -0.64505859 0.90544922 0 0 Z " fill="#F9EB88" transform="translate(608,927)"/>
<path d="M0 0 C0.66 0.33 1.32 0.66 2 1 C-1.3 4.3 -4.6 7.6 -8 11 C-8.99 10.67 -9.98 10.34 -11 10 C-5.555 5.05 -5.555 5.05 0 0 Z " fill="#120E07" transform="translate(605,460)"/>
<path d="M0 0 C5.61 0 11.22 0 17 0 C16.67 0.99 16.34 1.98 16 3 C10.72 2.34 5.44 1.68 0 1 C0 0.67 0 0.34 0 0 Z " fill="#1F1C1A" transform="translate(239,451)"/>
<path d="M0 0 C0.33 0 0.66 0 1 0 C1 5.94 1 11.88 1 18 C2.65 17.67 4.3 17.34 6 17 C4 19 4 19 -1 20 C-0.67 13.4 -0.34 6.8 0 0 Z " fill="#4C4E4E" transform="translate(717,615)"/>
<path d="M0 0 C0.33 0 0.66 0 1 0 C1.36590746 1.72672034 1.71722195 3.45653655 2.0625 5.1875 C2.25972656 6.15042969 2.45695313 7.11335937 2.66015625 8.10546875 C3.00423947 11.03610862 2.74164697 13.16307068 2 16 C1.67 16 1.34 16 1 16 C-1.48063781 5.62642369 -1.48063781 5.62642369 0 0 Z " fill="#23201D" transform="translate(778,509)"/>
<path d="M0 0 C0.33 0 0.66 0 1 0 C0.54775239 5.91492272 -0.1582605 11.35199888 -2 17 C-4 14 -4 14 -3.72265625 12.140625 C-3.48417969 11.43421875 -3.24570312 10.7278125 -3 10 C-2.75121094 9.14921875 -2.50242187 8.2984375 -2.24609375 7.421875 C-1.97925781 6.54015625 -1.71242188 5.6584375 -1.4375 4.75 C-1.16808594 3.85796875 -0.89867187 2.9659375 -0.62109375 2.046875 C-0.41613281 1.37140625 -0.21117187 0.6959375 0 0 Z " fill="#0C090B" transform="translate(405,544)"/>
<path d="M0 0 C0.66 0 1.32 0 2 0 C3.06775224 1.96466413 4.06553465 3.96855359 5 6 C4.67 6.66 4.34 7.32 4 8 C3.01 8 2.02 8 1 8 C-0.6875 6 -0.6875 6 -2 4 C-1.34 2.68 -0.68 1.36 0 0 Z " fill="#F3C52A" transform="translate(199,385)"/>
<path d="M0 0 C4.12751449 0.60698743 7.3321148 2.03810791 11 4 C11 4.33 11 4.66 11 5 C3.49230769 4.50769231 3.49230769 4.50769231 1 1.9375 C0.67 1.298125 0.34 0.65875 0 0 Z " fill="#1D1B1A" transform="translate(595,100)"/>
<path d="M0 0 C0.66 0 1.32 0 2 0 C3.7265625 1.75 3.7265625 1.75 5.625 4 C6.25664062 4.7425 6.88828125 5.485 7.5390625 6.25 C8.02117187 6.8275 8.50328125 7.405 9 8 C8.34 8.66 7.68 9.32 7 10 C5.82739389 8.71372289 4.6620717 7.42080217 3.5 6.125 C2.8503125 5.40570313 2.200625 4.68640625 1.53125 3.9453125 C0 2 0 2 0 0 Z " fill="#E1B828" transform="translate(362,393)"/>
<path d="M0 0 C3.63 0 7.26 0 11 0 C10.67 1.65 10.34 3.3 10 5 C9.67 4.01 9.34 3.02 9 2 C6.03 1.67 3.06 1.34 0 1 C0 0.67 0 0.34 0 0 Z " fill="#E8E4D0" transform="translate(418,365)"/>
<path d="M0 0 C0 0.99 0 1.98 0 3 C-2.64 3.33 -5.28 3.66 -8 4 C-8 3.01 -8 2.02 -8 1 C-5.23735711 0.40267181 -2.83967231 0 0 0 Z " fill="#EDE7CE" transform="translate(484,357)"/>
<path d="M0 0 C2 2 2 2 2.125 5.625 C2.08375 6.73875 2.0425 7.8525 2 9 C1.01 9.495 1.01 9.495 0 10 C-1.125 2.25 -1.125 2.25 0 0 Z " fill="#F3EDD4" transform="translate(471,240)"/>
<path d="M0 0 C0.99 0 1.98 0 3 0 C2.67 2.64 2.34 5.28 2 8 C1.01 7.67 0.02 7.34 -1 7 C-0.67 4.69 -0.34 2.38 0 0 Z " fill="#271F13" transform="translate(634,932)"/>
<path d="M0 0 C1.32 0 2.64 0 4 0 C4 0.66 4 1.32 4 2 C5.98 1.67 7.96 1.34 10 1 C9.67 1.99 9.34 2.98 9 4 C6.36 3.67 3.72 3.34 1 3 C0.67 2.01 0.34 1.02 0 0 Z " fill="#1E1A12" transform="translate(162,360)"/>
<path d="M0 0 C3.3 0.33 6.6 0.66 10 1 C6.00889681 2.9955516 4.30013434 3.19546065 0 3 C0 2.01 0 1.02 0 0 Z " fill="#23201E" transform="translate(510,76)"/>
<path d="M0 0 C1.32 0 2.64 0 4 0 C2.68775452 3.93673644 1.08089673 6.22719294 -2 9 C-1.67 7.88625 -1.34 6.7725 -1 5.625 C0.088643 2.30540283 0.088643 2.30540283 0 0 Z " fill="#0E0B08" transform="translate(296,913)"/>
<path d="M0 0 C1.31223496 3.93670488 0.24296256 6.12488144 -1 10 C-1.99 9.34 -2.98 8.68 -4 8 C-2.66666667 5.33333333 -1.33333333 2.66666667 0 0 Z " fill="#DD3C39" transform="translate(390,570)"/>
<path d="M0 0 C2 4 2 4 1.125 7.25 C0.75375 8.1575 0.3825 9.065 0 10 C-0.66 9.67 -1.32 9.34 -2 9 C-1.34 6.03 -0.68 3.06 0 0 Z " fill="#1E1B18" transform="translate(138,240)"/>
<path d="M0 0 C-0.66 0 -1.32 0 -2 0 C-2 0.66 -2 1.32 -2 2 C-4.3125 2.625 -4.3125 2.625 -7 3 C-7.99 2.34 -8.98 1.68 -10 1 C-3.71428571 -1.42857143 -3.71428571 -1.42857143 0 0 Z " fill="#1F1D1B" transform="translate(286,87)"/>
<path d="M0 0 C2.3125 -0.1875 2.3125 -0.1875 5 0 C5.99 0.99 6.98 1.98 8 3 C5.03 3 2.06 3 -1 3 C-0.67 2.01 -0.34 1.02 0 0 Z " fill="#1E1A18" transform="translate(484,73)"/>
</svg>
